<?xml version="1.0" encoding="UTF-8" standalone="no"?>
<!-- Created with Inkscape (http://www.inkscape.org/) -->

<svg
   width="1200"
   height="630"
   viewBox="0 0 1200 630"
   version="1.1"
   id="svg5"
   inkscape:version="1.3 (1:1.3+202307231459+0e150ed6c4)"
   sodipodi:docname="release-phoca-cart-news.svg"
   xmlns:inkscape="http://www.inkscape.org/namespaces/inkscape"
   xmlns:sodipodi="http://sodipodi.sourceforge.net/DTD/sodipodi-0.dtd"
   xmlns="http://www.w3.org/2000/svg"
   xmlns:svg="http://www.w3.org/2000/svg">
  <sodipodi:namedview
     id="namedview7"
     pagecolor="#ffffff"
     bordercolor="#666666"
     borderopacity="1.0"
     inkscape:pageshadow="2"
     inkscape:pageopacity="0.0"
     inkscape:pagecheckerboard="0"
     inkscape:document-units="px"
     showgrid="false"
     width="1000px"
     units="px"
     inkscape:showpageshadow="2"
     inkscape:deskcolor="#d1d1d1"
     inkscape:zoom="0.6742857"
     inkscape:cx="710.38137"
     inkscape:cy="384.11018"
     inkscape:window-width="1920"
     inkscape:window-height="1015"
     inkscape:window-x="1920"
     inkscape:window-y="0"
     inkscape:window-maximized="1"
     inkscape:current-layer="layer1">
    <inkscape:grid
       type="xygrid"
       id="grid824"
       originx="0"
       originy="0"
       spacingy="1"
       spacingx="1"
       units="px"
       visible="false" />
    <sodipodi:guide
       position="0,350"
       orientation="0,1000"
       id="guide1646"
       inkscape:locked="false" />
    <sodipodi:guide
       position="1000,350"
       orientation="350,0"
       id="guide1648"
       inkscape:locked="false" />
    <sodipodi:guide
       position="1000,0"
       orientation="0,-1000"
       id="guide1650"
       inkscape:locked="false" />
    <sodipodi:guide
       position="0,0"
       orientation="-350,0"
       id="guide1652"
       inkscape:locked="false" />
  </sodipodi:namedview>
  <defs
     id="defs2" />
  <g
     inkscape:label="Layer 1"
     inkscape:groupmode="layer"
     id="layer1">
    <path
       d="m 20.255569,108.51665 a 7.7136466,7.7136466 0 0 0 -7.713642,7.71366 v 97.9813 a 7.7136466,7.7136466 0 0 0 7.713642,7.71365 h 97.976161 a 7.7136466,7.7136466 0 0 0 7.71366,-7.71365 v -97.9813 a 7.7136466,7.7136466 0 0 0 -7.71366,-7.71366 z m 19.434793,19.56027 c 0.713664,-0.0396 1.370198,0.15119 1.983641,0.58253 0.613444,0.43428 1.017843,0.97811 1.215312,1.63715 l 2.917817,10.0388 56.209338,-2.94791 c 1.00218,-0.0517 1.83783,0.29557 2.50593,1.03955 0.66503,0.73187 0.92932,1.61216 0.76837,2.62649 l -4.71047,30.13208 c -0.16714,0.88974 -0.688242,1.80857 -1.556805,2.74709 -0.868526,0.95047 -2.000993,1.46343 -3.379601,1.5367 l -39.707287,2.07907 3.670934,12.38914 33.562073,-1.75766 c 0.877638,-0.0486 1.633087,0.21548 2.279941,0.78342 0.631654,0.58311 0.97085,1.3119 1.019438,2.18955 0.04556,0.87764 -0.215461,1.63316 -0.783423,2.27995 -0.583102,0.63479 -1.311906,0.97444 -2.189544,1.01944 l -3.13868,0.16558 0.165581,3.1338 c 0.04555,0.88069 -0.215462,1.63831 -0.798491,2.2699 -0.57091,0.64689 -1.293806,0.98951 -2.174476,1.0345 -0.87765,0.0456 -1.635213,-0.21547 -2.269888,-0.79849 -0.646866,-0.57094 -0.984008,-1.29685 -1.029515,-2.17448 l -0.165592,-3.13379 -18.817181,0.97927 0.160699,3.13868 c 0.04555,0.88067 -0.21238,1.63815 -0.783423,2.26989 -0.583078,0.64674 -1.311907,0.98848 -2.189544,1.0345 -0.877662,0.0486 -1.633111,-0.21546 -2.279941,-0.79849 -0.634711,-0.57091 -0.973955,-1.29683 -1.019462,-2.17447 l -0.165592,-3.13868 -1.943476,0.10053 c -0.753141,0.0394 -1.441321,-0.13473 -2.079065,-0.51726 -0.622566,-0.38263 -1.067542,-0.76357 -1.340834,-1.1249 l -0.346519,-0.61267 -15.768753,-59.62391 -3.389896,0.17586 c -0.841194,0.0456 -1.585816,-0.21855 -2.24479,-0.79849 -0.659011,-0.57086 -1.009106,-1.29182 -1.054613,-2.16946 -0.04555,-0.88069 0.225237,-1.63519 0.823613,-2.26989 0.595233,-0.6469 1.308148,-0.98863 2.149354,-1.0345 z"
       style="fill:#ffffff;stroke-width:1.20835;paint-order:stroke fill markers"
       id="path400" />
    <rect
       style="opacity:1;fill:#ffffff;stroke-width:6.04176;stroke-linejoin:round;paint-order:stroke fill markers"
       id="rect723"
       width="618.67578"
       height="618.67578"
       x="368.92422"
       y="-8.6470337" />
    <path
       id="rect4460"
       style="opacity:0.3;fill:#129ed9;fill-opacity:1;stroke-width:6.04176;stroke-linejoin:round;paint-order:stroke fill markers"
       d="M 59.586322,-3.81362 H 1296.9378 v 580.00857 c 0,0 -51.5562,-12.08351 -77.3343,-12.08351 -25.7783,0 -51.2436,12.08351 -77.3346,12.08351 -26.0909,0 -51.5563,-12.08351 -77.3344,-12.08351 -25.7782,0 -51.2436,12.08351 -77.33452,12.08351 -26.09093,0 -50.61453,-41.9311 -76.39268,-41.9311 -25.77815,0 -43.0719,31.16938 -85.50447,23.2559 -42.43257,-7.91348 -95.29318,-5.72859 -119.04014,-1.86937 -57.14209,9.10278 -59.50805,-8.12466 -105.57265,-4.00079 -46.0646,4.12387 -68.78025,18.35872 -145.37347,12.60202 -76.59321,-5.75671 -93.0289,-6.5947 -155.54436,-7.57847 -25.77816,0 -59.82601,18.6927 -85.91694,18.6927 -26.09094,0 -51.55632,-11.2544 -77.33447,-11.2544 -25.77816,0 -172.338004,66.42775 -172.338004,66.42775 z"
       sodipodi:nodetypes="ccczzzzzzczzczzcc" />
    <path
       id="rect4460-5"
       style="fill:#129ed9;fill-opacity:1;stroke-width:6.04176;stroke-linejoin:round;paint-order:stroke fill markers"
       d="M -12.914745,-8.64703 H 1224.4367 v 580.00857 c 0,0 -51.5562,-12.08351 -77.3344,-12.08351 -25.7781,0 -51.2435,12.08351 -77.3344,12.08351 -26.091,0 -75.22769,-12.14164 -101.00584,-12.14164 -25.77816,0 -65.79409,11.41606 -164.40754,-25.41213 -98.61345,-36.82819 -155.37332,33.43338 -202.96782,34.18525 -85.54484,-0.0504 -3.55836,-59.32429 -203.24816,-55.33125 -57.68708,-1.35678 -78.12697,40.4332 -105.69266,46.70448 -27.56569,6.27129 -54.48627,-16.10495 -78.15118,-16.10495 -14.93262,0 -44.46151,20.77023 -54.87959,28.01673 -10.41809,7.24651 -23.7318,12.35666 -47.12365,12.95034 -26.090938,0 -85.565176,-16.74661 -111.3433282,-16.74661 -25.7781538,0 -13.8628768,3.87978 -13.8628768,3.87978 z"
       sodipodi:nodetypes="ccczzzzccsssczcc" />
    <circle
       style="opacity:0.15;fill:#ffffff;fill-opacity:1;stroke-width:6.04176;stroke-linejoin:round;paint-order:stroke fill markers"
       id="path8376"
       cx="629.79425"
       cy="137.27933"
       inkscape:transform-center-x="112.11869"
       inkscape:transform-center-y="121.50699"
       r="302.08777"
       inkscape:label="path8376" />
    <text
       xml:space="preserve"
       style="font-style:normal;font-weight:normal;font-size:25.7781px;line-height:1.25;font-family:sans-serif;fill:#129ed9;fill-opacity:1;stroke:none;stroke-width:1.20835"
       x="953.81653"
       y="597.07104"
       id="text2910-3-7"><tspan
         sodipodi:role="line"
         id="tspan2908-6-5"
         x="953.81653"
         y="597.07104"
         style="font-style:normal;font-variant:normal;font-weight:300;font-stretch:normal;font-size:25.7781px;font-family:Montserrat;-inkscape-font-specification:'Montserrat Light';text-align:end;text-anchor:end;fill:#129ed9;fill-opacity:1;stroke-width:1.20835">WWW.PHOCA.CZ/NEWS</tspan></text>
    <text
       xml:space="preserve"
       style="font-style:normal;font-variant:normal;font-weight:600;font-stretch:normal;font-size:54.6662px;line-height:1.05;font-family:Rubik;-inkscape-font-specification:'Rubik Semi-Bold';fill:#ffffff;fill-opacity:1;stroke:none;stroke-width:1.57691"
       x="600"
       y="234.03391"
       id="text11252"><tspan
         sodipodi:role="line"
         x="600"
         y="234.03391"
         id="tspan403"
         style="text-align:center;text-anchor:middle;stroke-width:1.57691" /><tspan
         sodipodi:role="line"
         x="600"
         y="291.43341"
         style="font-size:54.6662px;text-align:center;text-anchor:middle;stroke-width:1.57691"
         id="tspan444"> Phoca Cart</tspan><tspan
         sodipodi:role="line"
         x="600"
         y="348.83292"
         id="tspan2906"
         style="font-size:54.6662px;text-align:center;text-anchor:middle;stroke-width:1.57691">version 5.2.3Beta
 has been released</tspan><tspan
         sodipodi:role="line"
         x="600"
         y="406.23242"
         id="tspan1994"
         style="font-size:54.6662px;stroke-width:1.57691" /></text>
    <circle
       style="opacity:0.15;fill:#ffffff;fill-opacity:1;stroke-width:6.04176;stroke-linejoin:round;paint-order:stroke fill markers"
       id="path8376-9"
       cx="254.19583"
       cy="286.19067"
       inkscape:transform-center-x="67.271222"
       inkscape:transform-center-y="72.904201"
       r="181.25267" />
    <circle
       style="opacity:0.15;fill:#ffffff;fill-opacity:1;stroke-width:6.04176;stroke-linejoin:round;paint-order:stroke fill markers"
       id="path8376-6"
       cx="494.23483"
       cy="-8.5061798"
       inkscape:transform-center-x="44.847467"
       inkscape:transform-center-y="48.6028"
       r="90.626335" />
    <ellipse
       style="opacity:0.15;fill:#ffffff;fill-opacity:1;stroke-width:7.44234;stroke-linejoin:round;paint-order:stroke fill markers"
       id="path8376-6-2"
       cx="1091.3152"
       cy="269.77582"
       inkscape:transform-center-x="54.775884"
       inkscape:transform-center-y="60.381138"
       rx="73.792892"
       ry="75.05909" />
    <g
       id="g8950"
       transform="matrix(0.36017197,0,0,0.36017197,498.62234,396.46425)"
       style="fill:#129ed9;fill-opacity:1;stroke-width:3.35492">
      <g
         id="g895"
         transform="translate(-301.04088,359.41515)"
         style="fill:#129ed9;fill-opacity:1;stroke-width:3.35492">
        <g
           transform="matrix(1.3333,0,0,-1.3333,-75.59,850.15)"
           fill="#ffffff"
           image-rendering="optimizeQuality"
           id="g280"
           style="clip-rule:evenodd;fill:#129ed9;fill-opacity:1;stroke-width:8.93424;shape-rendering:geometricPrecision">
          <path
             d="m 99.728,617.49 v -7.9943 h -4.4232 v 22.031 h 8.7843 c 2.5321,0 4.5266,-0.6457 5.9785,-1.9366 1.4522,-1.2912 2.1807,-2.99 2.1807,-5.097 0,-2.107 -0.7285,-3.801 -2.1807,-5.0817 -1.4519,-1.2806 -3.4464,-1.921 -5.9785,-1.921 z m 0,3.4084 h 4.3611 c 1.2299,0 2.1651,0.3356 2.8009,1.0017 0.6355,0.6713 0.9507,1.5234 0.9507,2.5614 0,1.0588 -0.3152,1.9316 -0.9456,2.6235 -0.6305,0.6868 -1.5659,1.0329 -2.806,1.0329 H 99.728 Z"
             id="path262"
             style="fill:#129ed9;fill-opacity:1;stroke-width:3.35492" />
          <path
             d="m 119.45,623.79 c 0.5167,0.7489 1.1469,1.3272 1.8913,1.7456 0.7489,0.4181 1.5757,0.6298 2.4854,0.6298 1.7053,0 3.0435,-0.568 4.0201,-1.7042 0.9714,-1.131 1.4573,-2.8868 1.4573,-5.252 v -9.7138 h -4.4184 v 9.7603 c 0,1.2756 -0.2271,2.1742 -0.6766,2.7062 -0.4445,0.5318 -1.116,0.7951 -2.005,0.7951 -0.6049,0 -1.1369,-0.1082 -1.6021,-0.3251 -0.4649,-0.2171 -0.8473,-0.5218 -1.152,-0.9193 v -12.017 h -4.4184 v 23.611 h 4.4184 z"
             id="path264"
             style="fill:#129ed9;fill-opacity:1;stroke-width:3.35492" />
          <path
             d="m 131.96,617.83 c 0,2.4375 0.682,4.4363 2.0461,5.9959 1.3592,1.5542 3.2502,2.334 5.6633,2.334 2.4182,0 4.3149,-0.7744 5.6894,-2.3289 1.3745,-1.5494 2.0619,-3.553 2.0619,-6.001 v -0.32 c 0,-2.4582 -0.6874,-4.462 -2.0514,-6.0111 -1.3694,-1.5441 -3.2607,-2.3188 -5.6741,-2.3188 -2.4182,0 -4.3146,0.7747 -5.684,2.3188 -1.3641,1.5491 -2.0512,3.5529 -2.0512,6.0111 z m 4.4076,-0.3098 c 0,-1.4873 0.2636,-2.6802 0.7855,-3.5838 0.527,-0.8986 1.3745,-1.3479 2.5421,-1.3479 1.1424,0 1.9794,0.4544 2.5064,1.3581 0.5323,0.9037 0.7957,2.0968 0.7957,3.5736 v 0.3152 c 0,1.446 -0.2687,2.6286 -0.8008,3.5425 -0.5375,0.9141 -1.3796,1.3736 -2.5271,1.3736 -1.1418,0 -1.9789,-0.4595 -2.5061,-1.3787 -0.5321,-0.9193 -0.7957,-2.1019 -0.7957,-3.5374 z"
             id="path266"
             style="fill:#129ed9;fill-opacity:1;stroke-width:3.35492" />
          <path
             d="m 157.01,612.59 c 0.7903,0 1.421,0.227 1.8913,0.6817 0.4753,0.4544 0.7129,1.0639 0.7129,1.8281 h 4.015 l 0.0414,-0.093 c 0.0413,-1.6526 -0.5786,-3.0365 -1.8706,-4.1519 -1.2867,-1.1157 -2.8834,-1.6733 -4.79,-1.6733 -2.4392,0 -4.3254,0.7693 -5.648,2.3137 -1.3176,1.544 -1.9792,3.5217 -1.9792,5.9439 v 0.4493 c 0,2.4117 0.6562,4.3946 1.9741,5.944 1.3175,1.5545 3.1983,2.3289 5.6375,2.3289 2.0203,0 3.6482,-0.5731 4.883,-1.7249 1.235,-1.1514 1.8345,-2.6645 1.7932,-4.5391 l -0.0309,-0.0879 h -4.0255 c 0,0.8417 -0.2325,1.5441 -0.6976,2.107 -0.4598,0.5576 -1.1007,0.8365 -1.9222,0.8365 -1.1679,0 -1.9947,-0.4543 -2.4752,-1.358 -0.4757,-0.9037 -0.7183,-2.071 -0.7183,-3.4963 v -0.4544 c 0,-1.4564 0.2426,-2.6285 0.7183,-3.522 0.4805,-0.8881 1.3124,-1.3323 2.4908,-1.3323"
             id="path268"
             style="fill:#129ed9;fill-opacity:1;stroke-width:3.35492" />
          <path
             d="m 175.8,609.49 c -0.1653,0.3719 -0.3047,0.7643 -0.4187,1.1827 -0.1187,0.413 -0.2015,0.8365 -0.248,1.2704 -0.4547,-0.8005 -1.0539,-1.4564 -1.798,-1.978 -0.7393,-0.5215 -1.628,-0.7849 -2.6564,-0.7849 -1.7152,0 -3.0381,0.4388 -3.9631,1.3221 -0.93,0.883 -1.3952,2.0863 -1.3952,3.6045 0,1.6061 0.6199,2.8454 1.855,3.7287 1.2351,0.883 3.0385,1.3218 5.4102,1.3218 h 2.4701 v 1.3014 c 0,0.7852 -0.2069,1.3944 -0.6202,1.8283 -0.4133,0.4337 -1.023,0.6506 -1.8343,0.6506 -0.7132,0 -1.266,-0.1755 -1.6535,-0.5216 -0.3928,-0.3461 -0.5839,-0.8263 -0.5839,-1.4459 l -4.2684,0.0156 -0.0156,0.0929 c -0.0723,1.3788 0.527,2.5716 1.7983,3.5788 1.2713,1.0017 2.9455,1.5026 5.0125,1.5026 1.9582,0 3.5447,-0.4958 4.7693,-1.4924 1.2197,-0.9916 1.8292,-2.4063 1.8292,-4.2398 v -6.7601 c 0,-0.7693 0.0621,-1.4924 0.176,-2.1636 0.1188,-0.6764 0.2994,-1.3479 0.5528,-2.0141 z m -4.0459,2.9435 c 0.7801,0 1.4675,0.1911 2.077,0.5735 0.6046,0.3821 1.0128,0.826 1.2248,1.3323 v 2.3082 h -2.4701 c -0.9354,0 -1.6483,-0.2321 -2.1339,-0.7021 -0.4808,-0.47 -0.7237,-1.033 -0.7237,-1.6991 0,-0.5423 0.1811,-0.9814 0.5425,-1.3116 0.3671,-0.3359 0.8578,-0.5012 1.4834,-0.5012"
             id="path270"
             style="fill:#129ed9;fill-opacity:1;stroke-width:3.35492" />
          <path
             d="m 199.84,617.01 0.0311,-0.0876 c 0.0412,-2.3703 -0.682,-4.2502 -2.1702,-5.6446 -1.4884,-1.3943 -3.5552,-2.0914 -6.201,-2.0914 -2.6561,0 -4.8107,0.8521 -6.4644,2.5563 -1.6535,1.7042 -2.4855,3.8937 -2.4855,6.5792 v 4.3688 c 0,2.6699 0.8116,4.8597 2.4237,6.5741 1.6174,1.7147 3.7153,2.5718 6.2991,2.5718 2.7233,0 4.8518,-0.6973 6.3865,-2.0967 1.5349,-1.3995 2.2841,-3.305 2.2427,-5.7167 l -0.0309,-0.0878 h -4.2993 c 0,1.451 -0.3461,2.5613 -1.0437,3.3361 -0.6976,0.7693 -1.7827,1.1568 -3.2553,1.1568 -1.3229,0 -2.372,-0.5372 -3.147,-1.6061 -0.7804,-1.0741 -1.1682,-2.4376 -1.1682,-4.1004 v -4.3897 c 0,-1.6835 0.4085,-3.0572 1.2249,-4.1312 0.8218,-1.0689 1.9222,-1.6061 3.3174,-1.6061 1.3796,0 2.4029,0.3719 3.0645,1.1103 0.6613,0.7435 0.9919,1.8437 0.9919,3.3049 z"
             id="path272"
             style="fill:#129ed9;fill-opacity:1;stroke-width:3.35492" />
          <path
             d="m 212.27,609.49 c -0.1653,0.3719 -0.305,0.7643 -0.4187,1.1827 -0.1187,0.413 -0.2015,0.8365 -0.248,1.2704 -0.4547,-0.8005 -1.0542,-1.4564 -1.798,-1.978 -0.7393,-0.5215 -1.628,-0.7849 -2.6564,-0.7849 -1.7155,0 -3.0384,0.4388 -3.9634,1.3221 -0.93,0.883 -1.3952,2.0863 -1.3952,3.6045 0,1.6061 0.6202,2.8454 1.855,3.7287 1.2354,0.883 3.0388,1.3218 5.4105,1.3218 h 2.4698 v 1.3014 c 0,0.7852 -0.2066,1.3944 -0.6199,1.8283 -0.4133,0.4337 -1.023,0.6506 -1.8343,0.6506 -0.7132,0 -1.2662,-0.1755 -1.6537,-0.5216 -0.3926,-0.3461 -0.584,-0.8263 -0.584,-1.4459 l -4.2681,0.0156 -0.0156,0.0929 c -0.0723,1.3788 0.527,2.5716 1.7983,3.5788 1.2713,1.0017 2.9452,1.5026 5.0125,1.5026 1.9582,0 3.5445,-0.4958 4.7693,-1.4924 1.2198,-0.9916 1.8292,-2.4063 1.8292,-4.2398 v -6.7601 c 0,-0.7693 0.0621,-1.4924 0.1757,-2.1636 0.1191,-0.6764 0.2997,-1.3479 0.5531,-2.0141 z m -4.0462,2.9435 c 0.7804,0 1.4675,0.1911 2.0773,0.5735 0.6046,0.3821 1.0128,0.826 1.2245,1.3323 v 2.3082 h -2.4698 c -0.9354,0 -1.6486,-0.2321 -2.1342,-0.7021 -0.4808,-0.47 -0.7234,-1.033 -0.7234,-1.6991 0,-0.5423 0.1808,-0.9814 0.5425,-1.3116 0.3671,-0.3359 0.8578,-0.5012 1.4831,-0.5012"
             id="path274"
             style="fill:#129ed9;fill-opacity:1;stroke-width:3.35492" />
          <path
             d="m 227.92,622.06 -1.6175,0.0465 c -0.6562,0 -1.1987,-0.1344 -1.6225,-0.4079 -0.4235,-0.2738 -0.7441,-0.6559 -0.9661,-1.1517 v -11.052 h -4.4078 v 16.36 h 4.1028 l 0.1962,-2.4219 c 0.3824,0.8572 0.8835,1.5284 1.4936,2.0089 0.6097,0.4802 1.3124,0.7228 2.1081,0.7228 0.2225,0 0.4289,-0.0153 0.6151,-0.0516 0.186,-0.036 0.377,-0.0774 0.5684,-0.1289 z"
             id="path276"
             style="fill:#129ed9;fill-opacity:1;stroke-width:3.35492" />
          <path
             d="m 235.83,629.86 v -4.0073 h 2.7544 v -3.0986 H 235.83 v -8.3298 c 0,-0.635 0.1293,-1.0897 0.3929,-1.3632 0.2633,-0.2739 0.6148,-0.4079 1.0593,-0.4079 0.2324,0 0.434,0.0102 0.5992,0.036 0.1656,0.0258 0.3617,0.0723 0.5786,0.1289 l 0.3827,-3.181 c -0.4445,-0.1548 -0.8785,-0.2684 -1.302,-0.3407 -0.4238,-0.0777 -0.8838,-0.1137 -1.3799,-0.1137 -1.5245,0 -2.6972,0.4184 -3.5189,1.2549 -0.8218,0.8365 -1.2351,2.1586 -1.2351,3.9765 v 8.34 h -2.3924 v 3.0986 h 2.3924 v 4.0073 z"
             id="path278"
             style="fill:#129ed9;fill-opacity:1;stroke-width:3.35492" />
        </g>
        <g
           fill="#ffffff"
           fill-rule="evenodd"
           image-rendering="optimizeQuality"
           stroke-width="1.93351"
           aria-label="Joomla eCommerce App"
           id="g318"
           style="clip-rule:evenodd;fill:#129ed9;fill-opacity:1;shape-rendering:geometricPrecision">
          <path
             d="M 1.7044,69 Q 1.15113,69 0.73617,68.90779 0.32122,68.83863 -0.00153,68.70031 v -1.752 q 0.36885,0.09221 0.7838,0.16137 0.41495,0.06916 0.87601,0.06916 0.57632,0 1.0835,-0.23053 0.53022,-0.23053 0.85296,-0.80686 0.32274,-0.57633 0.32274,-1.6137 v -16.368 h 2.0748 v 16.206 q 0,2.3745 -1.1757,3.5041 -1.1757,1.1296 -3.1122,1.1296 z"
             id="path282"
             style="fill:#129ed9;fill-opacity:1;stroke-width:1.93351" />
          <path
             d="m 20.792,58.419 q 0,3.066 -1.5676,4.7489 -1.5446,1.6829 -4.1956,1.6829 -1.6368,0 -2.9277,-0.7377 -1.2679,-0.76075 -2.0056,-2.19 -0.7377,-1.4523 -0.7377,-3.5041 0,-3.066 1.5446,-4.7259 1.5446,-1.6598 4.1956,-1.6598 1.6829,0 2.9508,0.76075 1.291,0.7377 2.0056,2.167 0.7377,1.4062 0.7377,3.458 z m -9.3365,0 q 0,2.19 0.85296,3.481 0.87601,1.2679 2.7664,1.2679 1.8673,0 2.7433,-1.2679 0.87601,-1.291 0.87601,-3.481 0,-2.19 -0.87601,-3.4349 -0.87601,-1.2449 -2.7664,-1.2449 -1.89039,0 -2.7433,1.2449 -0.85291,1.2449 -0.85296,3.4349 z"
             id="path284"
             style="fill:#129ed9;fill-opacity:1;stroke-width:1.93351" />
          <path
             d="m 34.739,58.419 q 0,3.066 -1.5676,4.7489 -1.5446,1.6829 -4.1956,1.6829 -1.6368,0 -2.9277,-0.7377 -1.2679,-0.76075 -2.0056,-2.19 -0.7377,-1.4523 -0.7377,-3.5041 0,-3.066 1.5446,-4.7259 1.5446,-1.6599 4.1956,-1.6598 1.6829,0 2.9508,0.76075 1.291,0.7377 2.0056,2.167 0.7377,1.4062 0.7377,3.458 z m -9.3365,0 q 0,2.19 0.85296,3.481 0.87601,1.2679 2.7664,1.2679 1.8673,0 2.7433,-1.2679 0.87601,-1.291 0.87601,-3.481 0,-2.19 -0.87601,-3.4349 -0.87601,-1.2449 -2.7664,-1.2449 -1.89039,0 -2.7433,1.2449 -0.85291,1.2449 -0.85296,3.4349 z"
             id="path286"
             style="fill:#129ed9;fill-opacity:1;stroke-width:1.93351" />
          <path
             d="m 51.499,52.033 q 2.0978,0 3.1352,1.0835 1.0374,1.0604 1.0374,3.458 V 64.62 H 53.666 v -7.9533 q 0,-2.9277 -2.5128,-2.9277 -1.7981,0 -2.5819,1.0374 -0.76075,1.0374 -0.76075,3.0199 V 64.62 h -2.0056 v -7.9533 q 0,-2.9277 -2.5358,-2.9277 -1.8673,0 -2.5819,1.1526 -0.7146,1.1526 -0.71464,3.3196 v 6.4087 h -2.0287 v -12.356 h 1.6368 l 0.29969,1.6829 h 0.11526 q 0.57632,-0.96823 1.5446,-1.4293 0.99128,-0.48411 2.0978,-0.48411 2.9047,0 3.7807,2.0748 h 0.11526 q 0.62243,-1.0604 1.6829,-1.5676 1.0835,-0.50717 2.2822,-0.50717 z"
             id="path288"
             style="fill:#129ed9;fill-opacity:1;stroke-width:1.93351" />
          <path
             d="M 61.527,64.62 H 59.4983 V 47.1 h 2.0287 z"
             id="path290"
             style="fill:#129ed9;fill-opacity:1;stroke-width:1.93351" />
          <path
             d="m 70.126,52.056 q 2.2592,0 3.3427,0.99128 1.0835,0.99128 1.0835,3.1583 v 8.4143 h -1.4754 l -0.3919,-1.752 h -0.09221 q -0.80686,1.0143 -1.7059,1.4984 -0.87601,0.48411 -2.4436,0.48411 -1.6829,0 -2.7894,-0.87601 -1.1065,-0.89907 -1.1065,-2.7894 0,-1.8442 1.4523,-2.8355 1.4523,-1.0143 4.4723,-1.1065 l 2.0978,-0.06916 v -0.7377 q 0,-1.5446 -0.66854,-2.1439 -0.66854,-0.5993 -1.8903,-0.59938 -0.96823,0 -1.8442,0.29969 -0.87601,0.27664 -1.6368,0.64548 l -0.62243,-1.5215 q 0.80686,-0.43801 1.9134,-0.7377 1.1065,-0.32274 2.3053,-0.32274 z m 0.59938,6.5932 q -2.3053,0.09221 -3.2044,0.7377 -0.87601,0.64548 -0.87601,1.8212 0,1.0374 0.62243,1.5215 0.64548,0.48411 1.6368,0.48411 1.5676,0 2.605,-0.85296 1.0374,-0.87601 1.0374,-2.6741 v -1.1065 z"
             id="path292"
             style="fill:#129ed9;fill-opacity:1;stroke-width:1.93351" />
          <path
             d="m 89.144,52.033 q 1.5907,0 2.7203,0.69159 1.1526,0.69159 1.752,1.9595 0.62243,1.2449 0.62243,2.9277 v 1.2218 h -8.4605 q 0.04611,2.0978 1.0604,3.2044 1.0374,1.0835 2.8816,1.0835 1.1757,0 2.0748,-0.20748 0.92212,-0.23053 1.8903,-0.64548 v 1.7751 q -0.94517,0.41495 -1.8673,0.59938 -0.92212,0.20748 -2.19,0.20748 -1.752,0 -3.1122,-0.71464 -1.3371,-0.71464 -2.0978,-2.1209 -0.7377,-1.4293 -0.7377,-3.481 0,-2.0287 0.66854,-3.481 0.69159,-1.4523 1.9134,-2.2361 1.2449,-0.7838 2.8816,-0.7838 z m -0.02305,1.6598 q -1.4523,0 -2.3053,0.94517 -0.82991,0.92212 -0.99128,2.5819 h 6.2935 q -0.02305,-1.5676 -0.7377,-2.5358 -0.71464,-0.99128 -2.2592,-0.99128 z"
             id="path294"
             style="fill:#129ed9;fill-opacity:1;stroke-width:1.93351" />
          <path
             d="m 104.71,49.751 q -2.6511,0 -4.1726,1.7751 -1.5215,1.7751 -1.5215,4.8642 0,3.066 1.4062,4.8642 1.4293,1.7751 4.2648,1.7751 1.0835,0 2.0517,-0.18442 0.96822,-0.18442 1.8903,-0.46106 v 1.7981 q -0.92212,0.3458 -1.9134,0.50717 -0.96822,0.16137 -2.3284,0.16137 -2.5128,0 -4.1956,-1.0374 -1.6829,-1.0374 -2.5358,-2.9508 -0.82991,-1.9134 -0.82991,-4.4953 0,-2.4897 0.89907,-4.3801 0.92212,-1.9134 2.6972,-2.9738 1.7751,-1.0835 4.3109,-1.0835 2.605,0 4.5414,0.96823 l -0.82991,1.752 q -0.76075,-0.3458 -1.7059,-0.62243 -0.92212,-0.27664 -2.0287,-0.27664 z"
             id="path296"
             style="fill:#129ed9;fill-opacity:1;stroke-width:1.93351" />
          <path
             d="m 122.69,58.419 q 0,3.066 -1.5676,4.7489 -1.5446,1.6829 -4.1956,1.6829 -1.6368,0 -2.9277,-0.7377 -1.2679,-0.76075 -2.0056,-2.19 -0.73769,-1.4523 -0.73769,-3.5041 0,-3.066 1.5446,-4.7259 1.5446,-1.6599 4.1956,-1.6598 1.6829,0 2.9508,0.76075 1.291,0.7377 2.0056,2.167 0.73769,1.4062 0.73769,3.458 z m -9.3365,0 q 0,2.19 0.85296,3.481 0.87601,1.2679 2.7664,1.2679 1.8673,0 2.7433,-1.2679 0.87601,-1.291 0.87601,-3.481 0,-2.19 -0.87601,-3.4349 -0.87602,-1.2449 -2.7664,-1.2449 -1.8904,0 -2.7433,1.2449 -0.8529,1.2449 -0.85296,3.4349 z"
             id="path298"
             style="fill:#129ed9;fill-opacity:1;stroke-width:1.93351" />
          <path
             d="m 139.45,52.033 q 2.0978,0 3.1352,1.0835 1.0374,1.0604 1.0374,3.458 V 64.62 h -2.0056 v -7.9533 q 0,-2.9277 -2.5128,-2.9277 -1.7981,0 -2.5819,1.0374 -0.76075,1.0374 -0.76075,3.0199 V 64.62 h -2.0056 v -7.9533 q 0,-2.9277 -2.5358,-2.9277 -1.8673,0 -2.5819,1.1526 -0.71465,1.1526 -0.71465,3.3196 v 6.4087 h -2.0287 v -12.356 h 1.6368 l 0.29969,1.6829 h 0.11527 q 0.57632,-0.96823 1.5446,-1.4293 0.99128,-0.48411 2.0978,-0.48411 2.9047,0 3.7807,2.0748 h 0.11527 q 0.62243,-1.0604 1.6829,-1.5676 1.0835,-0.50717 2.2822,-0.50717 z"
             id="path300"
             style="fill:#129ed9;fill-opacity:1;stroke-width:1.93351" />
          <path
             d="m 161,52.033 q 2.0978,0 3.1352,1.0835 1.0374,1.0604 1.0374,3.458 V 64.62 h -2.0056 v -7.9533 q 0,-2.9277 -2.5128,-2.9277 -1.7981,0 -2.5819,1.0374 -0.76075,1.0374 -0.76075,3.0199 V 64.62 h -2.0056 v -7.9533 q 0,-2.9277 -2.5358,-2.9277 -1.8673,0 -2.5819,1.1526 -0.71465,1.1526 -0.71465,3.3196 v 6.4087 h -2.0287 v -12.356 h 1.6368 l 0.29969,1.6829 h 0.11527 q 0.57632,-0.96823 1.5446,-1.4293 0.99128,-0.48411 2.0978,-0.48411 2.9047,0 3.7807,2.0748 h 0.11527 q 0.62243,-1.0604 1.6829,-1.5676 1.0835,-0.50717 2.2822,-0.50717 z"
             id="path302"
             style="fill:#129ed9;fill-opacity:1;stroke-width:1.93351" />
          <path
             d="m 173.77,52.033 q 1.5907,0 2.7203,0.69159 1.1526,0.69159 1.752,1.9595 0.62243,1.2449 0.62243,2.9277 v 1.2218 h -8.4604 q 0.0461,2.0978 1.0604,3.2044 1.0374,1.0835 2.8816,1.0835 1.1757,0 2.0748,-0.20748 0.92212,-0.23053 1.8903,-0.64548 v 1.7751 q -0.94517,0.41495 -1.8673,0.59938 -0.92212,0.20748 -2.19,0.20748 -1.752,0 -3.1122,-0.71464 -1.3371,-0.71464 -2.0978,-2.1209 -0.7377,-1.4293 -0.7377,-3.481 0,-2.0287 0.66854,-3.481 0.69159,-1.4523 1.9134,-2.2361 1.2449,-0.7838 2.8816,-0.7838 z m -0.023,1.6598 q -1.4523,0 -2.3053,0.94517 -0.82991,0.92212 -0.99128,2.5819 h 6.2935 q -0.023,-1.5676 -0.7377,-2.5358 -0.71464,-0.99128 -2.2592,-0.99128 z"
             id="path304"
             style="fill:#129ed9;fill-opacity:1;stroke-width:1.93351" />
          <path
             d="m 187.76,52.033 q 0.3458,0 0.7377,0.04611 0.41495,0.02305 0.71464,0.09221 l -0.25358,1.8673 q -0.29969,-0.06916 -0.66854,-0.11526 -0.34579,-0.04611 -0.66854,-0.04611 -0.94517,0 -1.7751,0.53022 -0.8299,0.50717 -1.3371,1.4523 -0.48411,0.92212 -0.48411,2.167 v 6.5932 h -2.0287 v -12.356 h 1.6598 l 0.23053,2.2592 h 0.0922 q 0.59938,-1.0143 1.5446,-1.752 0.94522,-0.7377 2.2361,-0.7377 z"
             id="path306"
             style="fill:#129ed9;fill-opacity:1;stroke-width:1.93351" />
          <path
             d="m 196.02,64.851 q -1.6368,0 -2.9277,-0.66854 -1.2679,-0.66854 -2.0056,-2.0748 -0.71464,-1.4062 -0.71464,-3.5963 0,-2.2822 0.76075,-3.7115 0.76074,-1.4293 2.0517,-2.0978 1.314,-0.66854 2.9738,-0.66854 0.94517,0 1.8212,0.20748 0.87601,0.18442 1.4293,0.46106 l -0.62243,1.6829 q -0.55327,-0.20748 -1.291,-0.3919 -0.73769,-0.18442 -1.3832,-0.18442 -3.6424,0 -3.6424,4.6798 0,2.2361 0.87601,3.4349 0.89907,1.1757 2.6511,1.1757 1.0143,0 1.7751,-0.20748 0.7838,-0.20748 1.4293,-0.50717 v 1.7981 q -0.62244,0.32274 -1.3832,0.48411 -0.7377,0.18442 -1.7981,0.18442 z"
             id="path308"
             style="fill:#129ed9;fill-opacity:1;stroke-width:1.93351" />
          <path
             d="m 206.9,52.033 q 1.5906,0 2.7202,0.69159 1.1526,0.69159 1.752,1.9595 0.62243,1.2449 0.62243,2.9277 v 1.2218 h -8.4604 q 0.0461,2.0978 1.0604,3.2044 1.0374,1.0835 2.8816,1.0835 1.1757,0 2.0748,-0.20748 0.92212,-0.23053 1.8904,-0.64548 v 1.7751 q -0.94518,0.41495 -1.8673,0.59938 -0.92212,0.20748 -2.19,0.20748 -1.752,0 -3.1122,-0.71464 -1.3371,-0.71464 -2.0978,-2.1209 -0.73769,-1.4293 -0.73769,-3.481 0,-2.0287 0.66853,-3.481 0.69159,-1.4523 1.9134,-2.2361 1.2449,-0.7838 2.8816,-0.7838 z m -0.0231,1.6598 q -1.4523,0 -2.3053,0.94517 -0.8299,0.92212 -0.99127,2.5819 h 6.2935 q -0.023,-1.5676 -0.73769,-2.5358 -0.71464,-0.99128 -2.2592,-0.99128 z"
             id="path310"
             style="fill:#129ed9;fill-opacity:1;stroke-width:1.93351" />
          <path
             d="m 231.73,64.62 -1.9826,-5.0947 h -6.524 l -1.9595,5.0947 h -2.0978 l 6.4318,-16.529 h 1.8673 l 6.4087,16.529 z m -4.4492,-11.918 q -0.0692,-0.18442 -0.23053,-0.66854 -0.16137,-0.48411 -0.32274,-0.99128 -0.13832,-0.53022 -0.23053,-0.80686 -0.16137,0.71464 -0.36885,1.4062 -0.20747,0.66854 -0.34579,1.0604 l -1.8673,4.9794 h 5.21 z"
             id="path312"
             style="fill:#129ed9;fill-opacity:1;stroke-width:1.93351" />
          <path
             d="m 241.73,52.033 q 2.2822,0 3.6654,1.5907 1.4062,1.5907 1.4062,4.795 0,3.1583 -1.4062,4.795 -1.3832,1.6368 -3.6885,1.6368 -1.4293,0 -2.3745,-0.53022 -0.92212,-0.55327 -1.4523,-1.2679 h -0.13832 q 0.0461,0.3919 0.0922,0.99128 0.0461,0.59938 0.0461,1.0374 v 5.0717 h -2.0286 v -17.889 h 1.6598 l 0.27664,1.6829 h 0.0922 q 0.55327,-0.80686 1.4523,-1.3601 0.89903,-0.55324 2.3975,-0.55327 z m -0.36885,1.7059 q -1.8903,0 -2.6741,1.0604 -0.76075,1.0604 -0.80686,3.2274 v 0.3919 q 0,2.2822 0.7377,3.5271 0.76075,1.2218 2.7894,1.2218 1.1296,0 1.8442,-0.62243 0.7377,-0.62243 1.0835,-1.6829 0.36885,-1.0835 0.36885,-2.4667 0,-2.1209 -0.82991,-3.3888 -0.80685,-1.2679 -2.5128,-1.2679 z"
             id="path314"
             style="fill:#129ed9;fill-opacity:1;stroke-width:1.93351" />
          <path
             d="m 255.91,52.033 q 2.2822,0 3.6654,1.5907 1.4062,1.5907 1.4062,4.795 0,3.1583 -1.4062,4.795 -1.3832,1.6368 -3.6885,1.6368 -1.4293,0 -2.3745,-0.53022 -0.92212,-0.55327 -1.4523,-1.2679 h -0.13832 q 0.0461,0.3919 0.0922,0.99128 0.0461,0.59938 0.0461,1.0374 v 5.0717 h -2.0287 v -17.889 h 1.6598 l 0.27664,1.6829 h 0.0922 q 0.55327,-0.80686 1.4523,-1.3601 0.89906,-0.55327 2.3975,-0.55327 z m -0.36885,1.7059 q -1.8903,0 -2.6742,1.0604 -0.76075,1.0604 -0.80685,3.2274 v 0.3919 q 0,2.2822 0.73769,3.5271 0.76075,1.2218 2.7894,1.2218 1.1296,0 1.8442,-0.62243 0.73769,-0.62243 1.0835,-1.6829 0.36885,-1.0835 0.36885,-2.4667 0,-2.1209 -0.82991,-3.3888 -0.80686,-1.2679 -2.5128,-1.2679 z"
             id="path316"
             style="fill:#129ed9;fill-opacity:1;stroke-width:1.93351" />
        </g>
        <path
           d="M 3,0 A 3,3 0 0 0 0,3 v 38.107 a 3,3 0 0 0 3,3 h 38.105 a 3,3 0 0 0 3,-3 V 3 a 3,3 0 0 0 -3,-3 z m 7.5586,7.6074 c 0.27756,-0.015389 0.5329,0.058844 0.77148,0.22656 0.23858,0.1689 0.39586,0.38041 0.47266,0.63672 l 1.1348,3.9043 21.861,-1.1465 c 0.38977,-0.02009 0.71477,0.11495 0.97461,0.4043 0.25864,0.28464 0.36143,0.627 0.29883,1.0215 l -1.832,11.719 c -0.06497,0.34604 -0.26767,0.70339 -0.60547,1.0684 -0.33779,0.36966 -0.77823,0.56916 -1.3145,0.59766 l -15.443,0.80859 1.4277,4.8184 13.053,-0.68359 c 0.34133,-0.01889 0.63514,0.08382 0.88672,0.30469 0.24566,0.22678 0.37758,0.51022 0.39648,0.85156 0.01772,0.34133 -0.08383,0.63517 -0.30469,0.88672 -0.22678,0.24688 -0.51023,0.37898 -0.85156,0.39648 l -1.2207,0.06445 0.06445,1.2188 c 0.01771,0.34252 -0.08377,0.63717 -0.31055,0.88281 -0.22204,0.25159 -0.50319,0.38484 -0.8457,0.40234 -0.34134,0.01769 -0.63597,-0.08377 -0.88281,-0.31055 -0.25158,-0.22205 -0.38269,-0.50437 -0.40039,-0.8457 l -0.06445,-1.2188 -7.3184,0.38086 0.0625,1.2207 c 0.01772,0.34251 -0.08264,0.63711 -0.30469,0.88281 -0.22677,0.25153 -0.51023,0.38444 -0.85156,0.40234 -0.34134,0.01892 -0.63515,-0.08378 -0.88672,-0.31055 -0.24685,-0.22204 -0.37878,-0.50437 -0.39648,-0.8457 l -0.06445,-1.2207 -0.75586,0.03906 c -0.29291,0.01535 -0.56056,-0.05235 -0.80859,-0.20117 -0.24213,-0.14882 -0.41519,-0.29697 -0.52148,-0.4375 l -0.13477,-0.23828 -6.1328,-23.189 -1.3184,0.06836 C 8.06565,10.18448 7.77605,10.08182 7.51976,9.85622 7.26346,9.6342 7.1273,9.3538 7.1096,9.01247 7.09188,8.66995 7.19724,8.37651 7.42991,8.12966 7.66141,7.87807 7.93869,7.74516 8.26585,7.72732 Z"
           fill="#ffffff"
           style="fill:#129ed9;fill-opacity:1;stroke-width:8.93424;paint-order:stroke fill markers"
           id="path334" />
      </g>
    </g>
    <circle
       style="opacity:0.15;fill:#ffffff;fill-opacity:1;stroke-width:6.04176;stroke-linejoin:round;paint-order:stroke fill markers"
       id="path8376-6-2-1"
       cx="987.59998"
       cy="447.36981"
       inkscape:transform-center-x="22.423765"
       inkscape:transform-center-y="24.301392"
       r="30.208778" />
  </g>
</svg>
