<?xml version="1.0" encoding="UTF-8" standalone="no"?>
<!-- Created with Inkscape (http://www.inkscape.org/) -->

<svg
   width="512"
   height="512"
   viewBox="0 0 512 512"
   version="1.1"
   id="svg5"
   inkscape:version="1.2 (1:1.2.1+202207142221+cd75a1ee6d)"
   sodipodi:docname="release.svg"
   xmlns:inkscape="http://www.inkscape.org/namespaces/inkscape"
   xmlns:sodipodi="http://sodipodi.sourceforge.net/DTD/sodipodi-0.dtd"
   xmlns="http://www.w3.org/2000/svg"
   xmlns:svg="http://www.w3.org/2000/svg">
  <sodipodi:namedview
     id="namedview7"
     pagecolor="#ffffff"
     bordercolor="#666666"
     borderopacity="1.0"
     inkscape:pageshadow="2"
     inkscape:pageopacity="0.0"
     inkscape:pagecheckerboard="0"
     inkscape:document-units="px"
     showgrid="false"
     width="1000px"
     units="px"
     inkscape:showpageshadow="2"
     inkscape:deskcolor="#d1d1d1"
     inkscape:zoom="1.3485714"
     inkscape:cx="327.75424"
     inkscape:cy="359.63984"
     inkscape:window-width="1920"
     inkscape:window-height="1015"
     inkscape:window-x="1920"
     inkscape:window-y="0"
     inkscape:window-maximized="1"
     inkscape:current-layer="layer1">
    <inkscape:grid
       type="xygrid"
       id="grid824"
       originx="0"
       originy="0" />
    <sodipodi:guide
       position="0,512"
       orientation="0,512"
       id="guide3202"
       inkscape:locked="false" />
    <sodipodi:guide
       position="512,512"
       orientation="512,0"
       id="guide3204"
       inkscape:locked="false" />
    <sodipodi:guide
       position="512,0"
       orientation="0,-512"
       id="guide3206"
       inkscape:locked="false" />
    <sodipodi:guide
       position="0,0"
       orientation="-512,0"
       id="guide3208"
       inkscape:locked="false" />
  </sodipodi:namedview>
  <defs
     id="defs2" />
  <g
     inkscape:label="Layer 1"
     inkscape:groupmode="layer"
     id="layer1">
    <path
       d="m -288.54911,96.961607 a 6.3836136,6.3836136 0 0 0 -6.38361,6.383623 v 81.08678 a 6.3836136,6.3836136 0 0 0 6.38361,6.38362 h 81.08253 a 6.3836136,6.3836136 0 0 0 6.38362,-6.38362 v -81.08678 a 6.3836136,6.3836136 0 0 0 -6.38362,-6.383623 z m 16.08373,16.187573 c 0.59061,-0.0328 1.13394,0.12512 1.64161,0.48209 0.50767,0.3594 0.84234,0.80946 1.00576,1.35486 l 2.41471,8.30785 46.51739,-2.43961 c 0.82938,-0.0428 1.52094,0.2446 2.07384,0.8603 0.55036,0.60568 0.76908,1.33418 0.63588,2.17362 l -3.89826,24.93652 c -0.13832,0.73633 -0.56957,1.49673 -1.28837,2.27342 -0.71877,0.78659 -1.65597,1.2111 -2.79687,1.27174 l -32.86072,1.72058 3.03797,10.25293 27.7751,-1.45459 c 0.72631,-0.0402 1.3515,0.17832 1.88682,0.64834 0.52274,0.48256 0.80345,1.08569 0.84366,1.81201 0.0377,0.72631 -0.17831,1.35156 -0.64834,1.88683 -0.48256,0.52533 -1.0857,0.80642 -1.81201,0.84366 l -2.59749,0.13703 0.13703,2.59345 c 0.0377,0.72884 -0.17831,1.35582 -0.66081,1.87851 -0.47247,0.53535 -1.07072,0.81889 -1.79954,0.85613 -0.72632,0.0377 -1.35326,-0.17832 -1.8785,-0.66081 -0.53533,-0.4725 -0.81434,-1.07324 -0.852,-1.79955 l -0.13704,-2.59344 -15.57261,0.81042 0.13299,2.59749 c 0.0377,0.72882 -0.17576,1.35569 -0.64834,1.8785 -0.48254,0.53523 -1.0857,0.81804 -1.81201,0.85613 -0.72633,0.0402 -1.35152,-0.17831 -1.88682,-0.66081 -0.52527,-0.47247 -0.80602,-1.07323 -0.84368,-1.79954 l -0.13704,-2.59749 -1.60837,0.0832 c -0.62328,0.0326 -1.1928,-0.1115 -1.72058,-0.42807 -0.51522,-0.31666 -0.88347,-0.63191 -1.10964,-0.93094 l -0.28677,-0.50703 -13.04981,-49.3432 -2.80539,0.14554 c -0.69615,0.0377 -1.31238,-0.18087 -1.85773,-0.66081 -0.54538,-0.47243 -0.83511,-1.06908 -0.87277,-1.79539 -0.0377,-0.72884 0.1864,-1.35324 0.6816,-1.8785 0.4926,-0.53536 1.08259,-0.81817 1.77875,-0.85613 z"
       style="fill:#ffffff;stroke-width:0.999999;paint-order:stroke fill markers"
       id="path400" />
    <rect
       style="opacity:1;fill:#ffffff;stroke-width:5;stroke-linejoin:round;paint-order:stroke fill markers"
       id="rect723"
       width="512"
       height="512"
       x="0"
       y="0" />
    <path
       id="rect4460"
       style="opacity:0.3;fill:#129ed9;fill-opacity:1;stroke-width:5;stroke-linejoin:round;paint-order:stroke fill markers"
       d="M -256,4 H 768 v 480.00003 c 0,0 -42.66667,-10 -64,-10 -21.33333,0 -42.40782,10 -64,10 -21.59218,0 -42.66667,-10 -64,-10 -21.33333,0 -42.40782,10 -64,10 -21.59218,0 -41.88727,-34.70109 -63.2206,-34.70109 -21.33333,0 -35.64519,25.79497 -70.76128,19.24598 -35.11609,-6.54899 -78.86216,-4.74083 -98.51453,-1.54704 -47.28931,7.53322 -49.24731,-6.72376 -87.36918,-3.31095 -38.12187,3.41281 -56.92075,15.1932 -120.307303,10.4291 -63.3865529,-4.7641 -84.09093,0.69814 -135.827107,-0.116 -21.333333,0 -42.40782,10 -64,10 -21.59218,0 -42.66667,-10 -64,-10 -21.33333,0 -64,10 -64,10 z"
       sodipodi:nodetypes="ccczzzzzzczzczzcc" />
    <path
       id="rect4460-5"
       style="fill:#129ed9;fill-opacity:1;stroke-width:5;stroke-linejoin:round;paint-order:stroke fill markers"
       d="M -316,4.9999998e-7 H 708 V 480.00003 c 0,0 -42.66667,-10 -64,-10 -21.33333,0 -42.40782,10 -64,10 -21.59218,0 -62.25645,-10.04811 -83.58978,-10.04811 -21.33333,0 -54.44948,9.44764 -136.05941,-21.03042 -81.60993,-30.47805 -128.58292,27.6686 -167.97089,28.29083 -70.79469,-0.0417 -47.30269,-54.28778 -212.560781,-50.98325 C -185.43895,429.53361 -38.40782,480.00003 -60,480.00003 c -21.59218,0 -42.66667,-10 -64,-10 -21.33333,0 -42.40782,10 -64,10 -21.59218,0 -42.66667,-10 -64,-10 -21.33333,0 -64,10 -64,10 z"
       sodipodi:nodetypes="ccczzzzczzzzzcc" />
    <text
       xml:space="preserve"
       style="font-style:normal;font-weight:normal;font-size:21.3333px;line-height:1.25;font-family:sans-serif;fill:#129ed9;fill-opacity:1;stroke:none"
       x="484.04175"
       y="501.27652"
       id="text2910-3-7"><tspan
         sodipodi:role="line"
         id="tspan2908-6-5"
         x="484.04175"
         y="501.27652"
         style="font-style:normal;font-variant:normal;font-weight:300;font-stretch:normal;font-size:21.3333px;font-family:Montserrat;-inkscape-font-specification:'Montserrat Light';text-align:end;text-anchor:end;fill:#129ed9;fill-opacity:1">WWW.PHOCA.CZ/NEWS</tspan></text>
    <text
       xml:space="preserve"
       style="font-style:normal;font-variant:normal;font-weight:600;font-stretch:normal;font-size:34.6667px;line-height:1.05;font-family:Rubik;-inkscape-font-specification:'Rubik Semi-Bold';fill:#ffffff;fill-opacity:1;stroke:none"
       x="255.99997"
       y="165"
       id="text11252"><tspan
         sodipodi:role="line"
         x="255.99997"
         y="165"
         id="tspan403"
         style="text-align:center;text-anchor:middle" /><tspan
         sodipodi:role="line"
         x="255.99997"
         y="202.65851"
         style="font-size:34.6667px;text-align:center;text-anchor:middle"
         id="tspan442"></tspan><tspan
         sodipodi:role="line"
         x="255.99997"
         y="239.0585"
         style="font-size:34.6667px;text-align:center;text-anchor:middle"
         id="tspan444">Phoca Cart</tspan><tspan
         sodipodi:role="line"
         x="255.99997"
         y="275.4585"
         id="tspan1992"
         style="font-size:34.6667px;text-align:center;text-anchor:middle">version 5.2.3Beta
</tspan><tspan
         sodipodi:role="line"
         x="255.99997"
         y="311.85852"
         id="tspan2906"
         style="font-size:34.6667px;text-align:center;text-anchor:middle">has been released</tspan><tspan
         sodipodi:role="line"
         x="255.99997"
         y="348.25851"
         id="tspan1994"
         style="font-size:34.6667px" /></text>
    <circle
       style="opacity:0.15;fill:#ffffff;fill-opacity:1;stroke-width:5;stroke-linejoin:round;paint-order:stroke fill markers"
       id="path8376"
       cx="516.66956"
       cy="-72.080597"
       inkscape:transform-center-x="92.786515"
       inkscape:transform-center-y="100.55603"
       r="250" />
    <circle
       style="opacity:0.15;fill:#ffffff;fill-opacity:1;stroke-width:5;stroke-linejoin:round;paint-order:stroke fill markers"
       id="path8376-9"
       cx="17.603855"
       cy="244.00002"
       inkscape:transform-center-x="55.671924"
       inkscape:transform-center-y="60.333621"
       r="150" />
    <circle
       style="opacity:0.15;fill:#ffffff;fill-opacity:1;stroke-width:5;stroke-linejoin:round;paint-order:stroke fill markers"
       id="path8376-6"
       cx="103.7038"
       cy="0.11656053"
       inkscape:transform-center-x="37.114606"
       inkscape:transform-center-y="40.222414"
       r="75" />
    <circle
       style="opacity:0.15;fill:#ffffff;fill-opacity:1;stroke-width:5;stroke-linejoin:round;paint-order:stroke fill markers"
       id="path8376-6-2"
       cx="505.16833"
       cy="274.23776"
       inkscape:transform-center-x="37.114606"
       inkscape:transform-center-y="40.222414"
       r="50" />
    <g
       id="g8950"
       transform="matrix(0.29806897,0,0,0.29806897,107.3348,335.25957)"
       style="fill:#129ed9;fill-opacity:1;stroke-width:3.35492">
      <g
         id="g895"
         transform="translate(-301.04088,359.41515)"
         style="fill:#129ed9;fill-opacity:1;stroke-width:3.35492">
        <g
           transform="matrix(1.3333,0,0,-1.3333,-75.59,850.15)"
           fill="#ffffff"
           image-rendering="optimizeQuality"
           id="g280"
           style="clip-rule:evenodd;fill:#129ed9;fill-opacity:1;stroke-width:8.93424;shape-rendering:geometricPrecision">
          <path
             d="m 99.728,617.49 v -7.9943 h -4.4232 v 22.031 h 8.7843 c 2.5321,0 4.5266,-0.6457 5.9785,-1.9366 1.4522,-1.2912 2.1807,-2.99 2.1807,-5.097 0,-2.107 -0.7285,-3.801 -2.1807,-5.0817 -1.4519,-1.2806 -3.4464,-1.921 -5.9785,-1.921 z m 0,3.4084 h 4.3611 c 1.2299,0 2.1651,0.3356 2.8009,1.0017 0.6355,0.6713 0.9507,1.5234 0.9507,2.5614 0,1.0588 -0.3152,1.9316 -0.9456,2.6235 -0.6305,0.6868 -1.5659,1.0329 -2.806,1.0329 H 99.728 Z"
             id="path262"
             style="fill:#129ed9;fill-opacity:1;stroke-width:3.35492" />
          <path
             d="m 119.45,623.79 c 0.5167,0.7489 1.1469,1.3272 1.8913,1.7456 0.7489,0.4181 1.5757,0.6298 2.4854,0.6298 1.7053,0 3.0435,-0.568 4.0201,-1.7042 0.9714,-1.131 1.4573,-2.8868 1.4573,-5.252 v -9.7138 h -4.4184 v 9.7603 c 0,1.2756 -0.2271,2.1742 -0.6766,2.7062 -0.4445,0.5318 -1.116,0.7951 -2.005,0.7951 -0.6049,0 -1.1369,-0.1082 -1.6021,-0.3251 -0.4649,-0.2171 -0.8473,-0.5218 -1.152,-0.9193 v -12.017 h -4.4184 v 23.611 h 4.4184 z"
             id="path264"
             style="fill:#129ed9;fill-opacity:1;stroke-width:3.35492" />
          <path
             d="m 131.96,617.83 c 0,2.4375 0.682,4.4363 2.0461,5.9959 1.3592,1.5542 3.2502,2.334 5.6633,2.334 2.4182,0 4.3149,-0.7744 5.6894,-2.3289 1.3745,-1.5494 2.0619,-3.553 2.0619,-6.001 v -0.32 c 0,-2.4582 -0.6874,-4.462 -2.0514,-6.0111 -1.3694,-1.5441 -3.2607,-2.3188 -5.6741,-2.3188 -2.4182,0 -4.3146,0.7747 -5.684,2.3188 -1.3641,1.5491 -2.0512,3.5529 -2.0512,6.0111 z m 4.4076,-0.3098 c 0,-1.4873 0.2636,-2.6802 0.7855,-3.5838 0.527,-0.8986 1.3745,-1.3479 2.5421,-1.3479 1.1424,0 1.9794,0.4544 2.5064,1.3581 0.5323,0.9037 0.7957,2.0968 0.7957,3.5736 v 0.3152 c 0,1.446 -0.2687,2.6286 -0.8008,3.5425 -0.5375,0.9141 -1.3796,1.3736 -2.5271,1.3736 -1.1418,0 -1.9789,-0.4595 -2.5061,-1.3787 -0.5321,-0.9193 -0.7957,-2.1019 -0.7957,-3.5374 z"
             id="path266"
             style="fill:#129ed9;fill-opacity:1;stroke-width:3.35492" />
          <path
             d="m 157.01,612.59 c 0.7903,0 1.421,0.227 1.8913,0.6817 0.4753,0.4544 0.7129,1.0639 0.7129,1.8281 h 4.015 l 0.0414,-0.093 c 0.0413,-1.6526 -0.5786,-3.0365 -1.8706,-4.1519 -1.2867,-1.1157 -2.8834,-1.6733 -4.79,-1.6733 -2.4392,0 -4.3254,0.7693 -5.648,2.3137 -1.3176,1.544 -1.9792,3.5217 -1.9792,5.9439 v 0.4493 c 0,2.4117 0.6562,4.3946 1.9741,5.944 1.3175,1.5545 3.1983,2.3289 5.6375,2.3289 2.0203,0 3.6482,-0.5731 4.883,-1.7249 1.235,-1.1514 1.8345,-2.6645 1.7932,-4.5391 l -0.0309,-0.0879 h -4.0255 c 0,0.8417 -0.2325,1.5441 -0.6976,2.107 -0.4598,0.5576 -1.1007,0.8365 -1.9222,0.8365 -1.1679,0 -1.9947,-0.4543 -2.4752,-1.358 -0.4757,-0.9037 -0.7183,-2.071 -0.7183,-3.4963 v -0.4544 c 0,-1.4564 0.2426,-2.6285 0.7183,-3.522 0.4805,-0.8881 1.3124,-1.3323 2.4908,-1.3323"
             id="path268"
             style="fill:#129ed9;fill-opacity:1;stroke-width:3.35492" />
          <path
             d="m 175.8,609.49 c -0.1653,0.3719 -0.3047,0.7643 -0.4187,1.1827 -0.1187,0.413 -0.2015,0.8365 -0.248,1.2704 -0.4547,-0.8005 -1.0539,-1.4564 -1.798,-1.978 -0.7393,-0.5215 -1.628,-0.7849 -2.6564,-0.7849 -1.7152,0 -3.0381,0.4388 -3.9631,1.3221 -0.93,0.883 -1.3952,2.0863 -1.3952,3.6045 0,1.6061 0.6199,2.8454 1.855,3.7287 1.2351,0.883 3.0385,1.3218 5.4102,1.3218 h 2.4701 v 1.3014 c 0,0.7852 -0.2069,1.3944 -0.6202,1.8283 -0.4133,0.4337 -1.023,0.6506 -1.8343,0.6506 -0.7132,0 -1.266,-0.1755 -1.6535,-0.5216 -0.3928,-0.3461 -0.5839,-0.8263 -0.5839,-1.4459 l -4.2684,0.0156 -0.0156,0.0929 c -0.0723,1.3788 0.527,2.5716 1.7983,3.5788 1.2713,1.0017 2.9455,1.5026 5.0125,1.5026 1.9582,0 3.5447,-0.4958 4.7693,-1.4924 1.2197,-0.9916 1.8292,-2.4063 1.8292,-4.2398 v -6.7601 c 0,-0.7693 0.0621,-1.4924 0.176,-2.1636 0.1188,-0.6764 0.2994,-1.3479 0.5528,-2.0141 z m -4.0459,2.9435 c 0.7801,0 1.4675,0.1911 2.077,0.5735 0.6046,0.3821 1.0128,0.826 1.2248,1.3323 v 2.3082 h -2.4701 c -0.9354,0 -1.6483,-0.2321 -2.1339,-0.7021 -0.4808,-0.47 -0.7237,-1.033 -0.7237,-1.6991 0,-0.5423 0.1811,-0.9814 0.5425,-1.3116 0.3671,-0.3359 0.8578,-0.5012 1.4834,-0.5012"
             id="path270"
             style="fill:#129ed9;fill-opacity:1;stroke-width:3.35492" />
          <path
             d="m 199.84,617.01 0.0311,-0.0876 c 0.0412,-2.3703 -0.682,-4.2502 -2.1702,-5.6446 -1.4884,-1.3943 -3.5552,-2.0914 -6.201,-2.0914 -2.6561,0 -4.8107,0.8521 -6.4644,2.5563 -1.6535,1.7042 -2.4855,3.8937 -2.4855,6.5792 v 4.3688 c 0,2.6699 0.8116,4.8597 2.4237,6.5741 1.6174,1.7147 3.7153,2.5718 6.2991,2.5718 2.7233,0 4.8518,-0.6973 6.3865,-2.0967 1.5349,-1.3995 2.2841,-3.305 2.2427,-5.7167 l -0.0309,-0.0878 h -4.2993 c 0,1.451 -0.3461,2.5613 -1.0437,3.3361 -0.6976,0.7693 -1.7827,1.1568 -3.2553,1.1568 -1.3229,0 -2.372,-0.5372 -3.147,-1.6061 -0.7804,-1.0741 -1.1682,-2.4376 -1.1682,-4.1004 v -4.3897 c 0,-1.6835 0.4085,-3.0572 1.2249,-4.1312 0.8218,-1.0689 1.9222,-1.6061 3.3174,-1.6061 1.3796,0 2.4029,0.3719 3.0645,1.1103 0.6613,0.7435 0.9919,1.8437 0.9919,3.3049 z"
             id="path272"
             style="fill:#129ed9;fill-opacity:1;stroke-width:3.35492" />
          <path
             d="m 212.27,609.49 c -0.1653,0.3719 -0.305,0.7643 -0.4187,1.1827 -0.1187,0.413 -0.2015,0.8365 -0.248,1.2704 -0.4547,-0.8005 -1.0542,-1.4564 -1.798,-1.978 -0.7393,-0.5215 -1.628,-0.7849 -2.6564,-0.7849 -1.7155,0 -3.0384,0.4388 -3.9634,1.3221 -0.93,0.883 -1.3952,2.0863 -1.3952,3.6045 0,1.6061 0.6202,2.8454 1.855,3.7287 1.2354,0.883 3.0388,1.3218 5.4105,1.3218 h 2.4698 v 1.3014 c 0,0.7852 -0.2066,1.3944 -0.6199,1.8283 -0.4133,0.4337 -1.023,0.6506 -1.8343,0.6506 -0.7132,0 -1.2662,-0.1755 -1.6537,-0.5216 -0.3926,-0.3461 -0.584,-0.8263 -0.584,-1.4459 l -4.2681,0.0156 -0.0156,0.0929 c -0.0723,1.3788 0.527,2.5716 1.7983,3.5788 1.2713,1.0017 2.9452,1.5026 5.0125,1.5026 1.9582,0 3.5445,-0.4958 4.7693,-1.4924 1.2198,-0.9916 1.8292,-2.4063 1.8292,-4.2398 v -6.7601 c 0,-0.7693 0.0621,-1.4924 0.1757,-2.1636 0.1191,-0.6764 0.2997,-1.3479 0.5531,-2.0141 z m -4.0462,2.9435 c 0.7804,0 1.4675,0.1911 2.0773,0.5735 0.6046,0.3821 1.0128,0.826 1.2245,1.3323 v 2.3082 h -2.4698 c -0.9354,0 -1.6486,-0.2321 -2.1342,-0.7021 -0.4808,-0.47 -0.7234,-1.033 -0.7234,-1.6991 0,-0.5423 0.1808,-0.9814 0.5425,-1.3116 0.3671,-0.3359 0.8578,-0.5012 1.4831,-0.5012"
             id="path274"
             style="fill:#129ed9;fill-opacity:1;stroke-width:3.35492" />
          <path
             d="m 227.92,622.06 -1.6175,0.0465 c -0.6562,0 -1.1987,-0.1344 -1.6225,-0.4079 -0.4235,-0.2738 -0.7441,-0.6559 -0.9661,-1.1517 v -11.052 h -4.4078 v 16.36 h 4.1028 l 0.1962,-2.4219 c 0.3824,0.8572 0.8835,1.5284 1.4936,2.0089 0.6097,0.4802 1.3124,0.7228 2.1081,0.7228 0.2225,0 0.4289,-0.0153 0.6151,-0.0516 0.186,-0.036 0.377,-0.0774 0.5684,-0.1289 z"
             id="path276"
             style="fill:#129ed9;fill-opacity:1;stroke-width:3.35492" />
          <path
             d="m 235.83,629.86 v -4.0073 h 2.7544 v -3.0986 H 235.83 v -8.3298 c 0,-0.635 0.1293,-1.0897 0.3929,-1.3632 0.2633,-0.2739 0.6148,-0.4079 1.0593,-0.4079 0.2324,0 0.434,0.0102 0.5992,0.036 0.1656,0.0258 0.3617,0.0723 0.5786,0.1289 l 0.3827,-3.181 c -0.4445,-0.1548 -0.8785,-0.2684 -1.302,-0.3407 -0.4238,-0.0777 -0.8838,-0.1137 -1.3799,-0.1137 -1.5245,0 -2.6972,0.4184 -3.5189,1.2549 -0.8218,0.8365 -1.2351,2.1586 -1.2351,3.9765 v 8.34 h -2.3924 v 3.0986 h 2.3924 v 4.0073 z"
             id="path278"
             style="fill:#129ed9;fill-opacity:1;stroke-width:3.35492" />
        </g>
        <g
           fill="#ffffff"
           fill-rule="evenodd"
           image-rendering="optimizeQuality"
           stroke-width="1.93351"
           aria-label="Joomla eCommerce App"
           id="g318"
           style="clip-rule:evenodd;fill:#129ed9;fill-opacity:1;shape-rendering:geometricPrecision">
          <path
             d="M 1.7044,69 Q 1.15113,69 0.73617,68.90779 0.32122,68.83863 -0.00153,68.70031 v -1.752 q 0.36885,0.09221 0.7838,0.16137 0.41495,0.06916 0.87601,0.06916 0.57632,0 1.0835,-0.23053 0.53022,-0.23053 0.85296,-0.80686 0.32274,-0.57633 0.32274,-1.6137 v -16.368 h 2.0748 v 16.206 q 0,2.3745 -1.1757,3.5041 -1.1757,1.1296 -3.1122,1.1296 z"
             id="path282"
             style="fill:#129ed9;fill-opacity:1;stroke-width:1.93351" />
          <path
             d="m 20.792,58.419 q 0,3.066 -1.5676,4.7489 -1.5446,1.6829 -4.1956,1.6829 -1.6368,0 -2.9277,-0.7377 -1.2679,-0.76075 -2.0056,-2.19 -0.7377,-1.4523 -0.7377,-3.5041 0,-3.066 1.5446,-4.7259 1.5446,-1.6598 4.1956,-1.6598 1.6829,0 2.9508,0.76075 1.291,0.7377 2.0056,2.167 0.7377,1.4062 0.7377,3.458 z m -9.3365,0 q 0,2.19 0.85296,3.481 0.87601,1.2679 2.7664,1.2679 1.8673,0 2.7433,-1.2679 0.87601,-1.291 0.87601,-3.481 0,-2.19 -0.87601,-3.4349 -0.87601,-1.2449 -2.7664,-1.2449 -1.89039,0 -2.7433,1.2449 -0.85291,1.2449 -0.85296,3.4349 z"
             id="path284"
             style="fill:#129ed9;fill-opacity:1;stroke-width:1.93351" />
          <path
             d="m 34.739,58.419 q 0,3.066 -1.5676,4.7489 -1.5446,1.6829 -4.1956,1.6829 -1.6368,0 -2.9277,-0.7377 -1.2679,-0.76075 -2.0056,-2.19 -0.7377,-1.4523 -0.7377,-3.5041 0,-3.066 1.5446,-4.7259 1.5446,-1.6599 4.1956,-1.6598 1.6829,0 2.9508,0.76075 1.291,0.7377 2.0056,2.167 0.7377,1.4062 0.7377,3.458 z m -9.3365,0 q 0,2.19 0.85296,3.481 0.87601,1.2679 2.7664,1.2679 1.8673,0 2.7433,-1.2679 0.87601,-1.291 0.87601,-3.481 0,-2.19 -0.87601,-3.4349 -0.87601,-1.2449 -2.7664,-1.2449 -1.89039,0 -2.7433,1.2449 -0.85291,1.2449 -0.85296,3.4349 z"
             id="path286"
             style="fill:#129ed9;fill-opacity:1;stroke-width:1.93351" />
          <path
             d="m 51.499,52.033 q 2.0978,0 3.1352,1.0835 1.0374,1.0604 1.0374,3.458 V 64.62 H 53.666 v -7.9533 q 0,-2.9277 -2.5128,-2.9277 -1.7981,0 -2.5819,1.0374 -0.76075,1.0374 -0.76075,3.0199 V 64.62 h -2.0056 v -7.9533 q 0,-2.9277 -2.5358,-2.9277 -1.8673,0 -2.5819,1.1526 -0.7146,1.1526 -0.71464,3.3196 v 6.4087 h -2.0287 v -12.356 h 1.6368 l 0.29969,1.6829 h 0.11526 q 0.57632,-0.96823 1.5446,-1.4293 0.99128,-0.48411 2.0978,-0.48411 2.9047,0 3.7807,2.0748 h 0.11526 q 0.62243,-1.0604 1.6829,-1.5676 1.0835,-0.50717 2.2822,-0.50717 z"
             id="path288"
             style="fill:#129ed9;fill-opacity:1;stroke-width:1.93351" />
          <path
             d="M 61.527,64.62 H 59.4983 V 47.1 h 2.0287 z"
             id="path290"
             style="fill:#129ed9;fill-opacity:1;stroke-width:1.93351" />
          <path
             d="m 70.126,52.056 q 2.2592,0 3.3427,0.99128 1.0835,0.99128 1.0835,3.1583 v 8.4143 h -1.4754 l -0.3919,-1.752 h -0.09221 q -0.80686,1.0143 -1.7059,1.4984 -0.87601,0.48411 -2.4436,0.48411 -1.6829,0 -2.7894,-0.87601 -1.1065,-0.89907 -1.1065,-2.7894 0,-1.8442 1.4523,-2.8355 1.4523,-1.0143 4.4723,-1.1065 l 2.0978,-0.06916 v -0.7377 q 0,-1.5446 -0.66854,-2.1439 -0.66854,-0.5993 -1.8903,-0.59938 -0.96823,0 -1.8442,0.29969 -0.87601,0.27664 -1.6368,0.64548 l -0.62243,-1.5215 q 0.80686,-0.43801 1.9134,-0.7377 1.1065,-0.32274 2.3053,-0.32274 z m 0.59938,6.5932 q -2.3053,0.09221 -3.2044,0.7377 -0.87601,0.64548 -0.87601,1.8212 0,1.0374 0.62243,1.5215 0.64548,0.48411 1.6368,0.48411 1.5676,0 2.605,-0.85296 1.0374,-0.87601 1.0374,-2.6741 v -1.1065 z"
             id="path292"
             style="fill:#129ed9;fill-opacity:1;stroke-width:1.93351" />
          <path
             d="m 89.144,52.033 q 1.5907,0 2.7203,0.69159 1.1526,0.69159 1.752,1.9595 0.62243,1.2449 0.62243,2.9277 v 1.2218 h -8.4605 q 0.04611,2.0978 1.0604,3.2044 1.0374,1.0835 2.8816,1.0835 1.1757,0 2.0748,-0.20748 0.92212,-0.23053 1.8903,-0.64548 v 1.7751 q -0.94517,0.41495 -1.8673,0.59938 -0.92212,0.20748 -2.19,0.20748 -1.752,0 -3.1122,-0.71464 -1.3371,-0.71464 -2.0978,-2.1209 -0.7377,-1.4293 -0.7377,-3.481 0,-2.0287 0.66854,-3.481 0.69159,-1.4523 1.9134,-2.2361 1.2449,-0.7838 2.8816,-0.7838 z m -0.02305,1.6598 q -1.4523,0 -2.3053,0.94517 -0.82991,0.92212 -0.99128,2.5819 h 6.2935 q -0.02305,-1.5676 -0.7377,-2.5358 -0.71464,-0.99128 -2.2592,-0.99128 z"
             id="path294"
             style="fill:#129ed9;fill-opacity:1;stroke-width:1.93351" />
          <path
             d="m 104.71,49.751 q -2.6511,0 -4.1726,1.7751 -1.5215,1.7751 -1.5215,4.8642 0,3.066 1.4062,4.8642 1.4293,1.7751 4.2648,1.7751 1.0835,0 2.0517,-0.18442 0.96822,-0.18442 1.8903,-0.46106 v 1.7981 q -0.92212,0.3458 -1.9134,0.50717 -0.96822,0.16137 -2.3284,0.16137 -2.5128,0 -4.1956,-1.0374 -1.6829,-1.0374 -2.5358,-2.9508 -0.82991,-1.9134 -0.82991,-4.4953 0,-2.4897 0.89907,-4.3801 0.92212,-1.9134 2.6972,-2.9738 1.7751,-1.0835 4.3109,-1.0835 2.605,0 4.5414,0.96823 l -0.82991,1.752 q -0.76075,-0.3458 -1.7059,-0.62243 -0.92212,-0.27664 -2.0287,-0.27664 z"
             id="path296"
             style="fill:#129ed9;fill-opacity:1;stroke-width:1.93351" />
          <path
             d="m 122.69,58.419 q 0,3.066 -1.5676,4.7489 -1.5446,1.6829 -4.1956,1.6829 -1.6368,0 -2.9277,-0.7377 -1.2679,-0.76075 -2.0056,-2.19 -0.73769,-1.4523 -0.73769,-3.5041 0,-3.066 1.5446,-4.7259 1.5446,-1.6599 4.1956,-1.6598 1.6829,0 2.9508,0.76075 1.291,0.7377 2.0056,2.167 0.73769,1.4062 0.73769,3.458 z m -9.3365,0 q 0,2.19 0.85296,3.481 0.87601,1.2679 2.7664,1.2679 1.8673,0 2.7433,-1.2679 0.87601,-1.291 0.87601,-3.481 0,-2.19 -0.87601,-3.4349 -0.87602,-1.2449 -2.7664,-1.2449 -1.8904,0 -2.7433,1.2449 -0.8529,1.2449 -0.85296,3.4349 z"
             id="path298"
             style="fill:#129ed9;fill-opacity:1;stroke-width:1.93351" />
          <path
             d="m 139.45,52.033 q 2.0978,0 3.1352,1.0835 1.0374,1.0604 1.0374,3.458 V 64.62 h -2.0056 v -7.9533 q 0,-2.9277 -2.5128,-2.9277 -1.7981,0 -2.5819,1.0374 -0.76075,1.0374 -0.76075,3.0199 V 64.62 h -2.0056 v -7.9533 q 0,-2.9277 -2.5358,-2.9277 -1.8673,0 -2.5819,1.1526 -0.71465,1.1526 -0.71465,3.3196 v 6.4087 h -2.0287 v -12.356 h 1.6368 l 0.29969,1.6829 h 0.11527 q 0.57632,-0.96823 1.5446,-1.4293 0.99128,-0.48411 2.0978,-0.48411 2.9047,0 3.7807,2.0748 h 0.11527 q 0.62243,-1.0604 1.6829,-1.5676 1.0835,-0.50717 2.2822,-0.50717 z"
             id="path300"
             style="fill:#129ed9;fill-opacity:1;stroke-width:1.93351" />
          <path
             d="m 161,52.033 q 2.0978,0 3.1352,1.0835 1.0374,1.0604 1.0374,3.458 V 64.62 h -2.0056 v -7.9533 q 0,-2.9277 -2.5128,-2.9277 -1.7981,0 -2.5819,1.0374 -0.76075,1.0374 -0.76075,3.0199 V 64.62 h -2.0056 v -7.9533 q 0,-2.9277 -2.5358,-2.9277 -1.8673,0 -2.5819,1.1526 -0.71465,1.1526 -0.71465,3.3196 v 6.4087 h -2.0287 v -12.356 h 1.6368 l 0.29969,1.6829 h 0.11527 q 0.57632,-0.96823 1.5446,-1.4293 0.99128,-0.48411 2.0978,-0.48411 2.9047,0 3.7807,2.0748 h 0.11527 q 0.62243,-1.0604 1.6829,-1.5676 1.0835,-0.50717 2.2822,-0.50717 z"
             id="path302"
             style="fill:#129ed9;fill-opacity:1;stroke-width:1.93351" />
          <path
             d="m 173.77,52.033 q 1.5907,0 2.7203,0.69159 1.1526,0.69159 1.752,1.9595 0.62243,1.2449 0.62243,2.9277 v 1.2218 h -8.4604 q 0.0461,2.0978 1.0604,3.2044 1.0374,1.0835 2.8816,1.0835 1.1757,0 2.0748,-0.20748 0.92212,-0.23053 1.8903,-0.64548 v 1.7751 q -0.94517,0.41495 -1.8673,0.59938 -0.92212,0.20748 -2.19,0.20748 -1.752,0 -3.1122,-0.71464 -1.3371,-0.71464 -2.0978,-2.1209 -0.7377,-1.4293 -0.7377,-3.481 0,-2.0287 0.66854,-3.481 0.69159,-1.4523 1.9134,-2.2361 1.2449,-0.7838 2.8816,-0.7838 z m -0.023,1.6598 q -1.4523,0 -2.3053,0.94517 -0.82991,0.92212 -0.99128,2.5819 h 6.2935 q -0.023,-1.5676 -0.7377,-2.5358 -0.71464,-0.99128 -2.2592,-0.99128 z"
             id="path304"
             style="fill:#129ed9;fill-opacity:1;stroke-width:1.93351" />
          <path
             d="m 187.76,52.033 q 0.3458,0 0.7377,0.04611 0.41495,0.02305 0.71464,0.09221 l -0.25358,1.8673 q -0.29969,-0.06916 -0.66854,-0.11526 -0.34579,-0.04611 -0.66854,-0.04611 -0.94517,0 -1.7751,0.53022 -0.8299,0.50717 -1.3371,1.4523 -0.48411,0.92212 -0.48411,2.167 v 6.5932 h -2.0287 v -12.356 h 1.6598 l 0.23053,2.2592 h 0.0922 q 0.59938,-1.0143 1.5446,-1.752 0.94522,-0.7377 2.2361,-0.7377 z"
             id="path306"
             style="fill:#129ed9;fill-opacity:1;stroke-width:1.93351" />
          <path
             d="m 196.02,64.851 q -1.6368,0 -2.9277,-0.66854 -1.2679,-0.66854 -2.0056,-2.0748 -0.71464,-1.4062 -0.71464,-3.5963 0,-2.2822 0.76075,-3.7115 0.76074,-1.4293 2.0517,-2.0978 1.314,-0.66854 2.9738,-0.66854 0.94517,0 1.8212,0.20748 0.87601,0.18442 1.4293,0.46106 l -0.62243,1.6829 q -0.55327,-0.20748 -1.291,-0.3919 -0.73769,-0.18442 -1.3832,-0.18442 -3.6424,0 -3.6424,4.6798 0,2.2361 0.87601,3.4349 0.89907,1.1757 2.6511,1.1757 1.0143,0 1.7751,-0.20748 0.7838,-0.20748 1.4293,-0.50717 v 1.7981 q -0.62244,0.32274 -1.3832,0.48411 -0.7377,0.18442 -1.7981,0.18442 z"
             id="path308"
             style="fill:#129ed9;fill-opacity:1;stroke-width:1.93351" />
          <path
             d="m 206.9,52.033 q 1.5906,0 2.7202,0.69159 1.1526,0.69159 1.752,1.9595 0.62243,1.2449 0.62243,2.9277 v 1.2218 h -8.4604 q 0.0461,2.0978 1.0604,3.2044 1.0374,1.0835 2.8816,1.0835 1.1757,0 2.0748,-0.20748 0.92212,-0.23053 1.8904,-0.64548 v 1.7751 q -0.94518,0.41495 -1.8673,0.59938 -0.92212,0.20748 -2.19,0.20748 -1.752,0 -3.1122,-0.71464 -1.3371,-0.71464 -2.0978,-2.1209 -0.73769,-1.4293 -0.73769,-3.481 0,-2.0287 0.66853,-3.481 0.69159,-1.4523 1.9134,-2.2361 1.2449,-0.7838 2.8816,-0.7838 z m -0.0231,1.6598 q -1.4523,0 -2.3053,0.94517 -0.8299,0.92212 -0.99127,2.5819 h 6.2935 q -0.023,-1.5676 -0.73769,-2.5358 -0.71464,-0.99128 -2.2592,-0.99128 z"
             id="path310"
             style="fill:#129ed9;fill-opacity:1;stroke-width:1.93351" />
          <path
             d="m 231.73,64.62 -1.9826,-5.0947 h -6.524 l -1.9595,5.0947 h -2.0978 l 6.4318,-16.529 h 1.8673 l 6.4087,16.529 z m -4.4492,-11.918 q -0.0692,-0.18442 -0.23053,-0.66854 -0.16137,-0.48411 -0.32274,-0.99128 -0.13832,-0.53022 -0.23053,-0.80686 -0.16137,0.71464 -0.36885,1.4062 -0.20747,0.66854 -0.34579,1.0604 l -1.8673,4.9794 h 5.21 z"
             id="path312"
             style="fill:#129ed9;fill-opacity:1;stroke-width:1.93351" />
          <path
             d="m 241.73,52.033 q 2.2822,0 3.6654,1.5907 1.4062,1.5907 1.4062,4.795 0,3.1583 -1.4062,4.795 -1.3832,1.6368 -3.6885,1.6368 -1.4293,0 -2.3745,-0.53022 -0.92212,-0.55327 -1.4523,-1.2679 h -0.13832 q 0.0461,0.3919 0.0922,0.99128 0.0461,0.59938 0.0461,1.0374 v 5.0717 h -2.0286 v -17.889 h 1.6598 l 0.27664,1.6829 h 0.0922 q 0.55327,-0.80686 1.4523,-1.3601 0.89903,-0.55324 2.3975,-0.55327 z m -0.36885,1.7059 q -1.8903,0 -2.6741,1.0604 -0.76075,1.0604 -0.80686,3.2274 v 0.3919 q 0,2.2822 0.7377,3.5271 0.76075,1.2218 2.7894,1.2218 1.1296,0 1.8442,-0.62243 0.7377,-0.62243 1.0835,-1.6829 0.36885,-1.0835 0.36885,-2.4667 0,-2.1209 -0.82991,-3.3888 -0.80685,-1.2679 -2.5128,-1.2679 z"
             id="path314"
             style="fill:#129ed9;fill-opacity:1;stroke-width:1.93351" />
          <path
             d="m 255.91,52.033 q 2.2822,0 3.6654,1.5907 1.4062,1.5907 1.4062,4.795 0,3.1583 -1.4062,4.795 -1.3832,1.6368 -3.6885,1.6368 -1.4293,0 -2.3745,-0.53022 -0.92212,-0.55327 -1.4523,-1.2679 h -0.13832 q 0.0461,0.3919 0.0922,0.99128 0.0461,0.59938 0.0461,1.0374 v 5.0717 h -2.0287 v -17.889 h 1.6598 l 0.27664,1.6829 h 0.0922 q 0.55327,-0.80686 1.4523,-1.3601 0.89906,-0.55327 2.3975,-0.55327 z m -0.36885,1.7059 q -1.8903,0 -2.6742,1.0604 -0.76075,1.0604 -0.80685,3.2274 v 0.3919 q 0,2.2822 0.73769,3.5271 0.76075,1.2218 2.7894,1.2218 1.1296,0 1.8442,-0.62243 0.73769,-0.62243 1.0835,-1.6829 0.36885,-1.0835 0.36885,-2.4667 0,-2.1209 -0.82991,-3.3888 -0.80686,-1.2679 -2.5128,-1.2679 z"
             id="path316"
             style="fill:#129ed9;fill-opacity:1;stroke-width:1.93351" />
        </g>
        <path
           d="M 3,0 A 3,3 0 0 0 0,3 v 38.107 a 3,3 0 0 0 3,3 h 38.105 a 3,3 0 0 0 3,-3 V 3 a 3,3 0 0 0 -3,-3 z m 7.5586,7.6074 c 0.27756,-0.015389 0.5329,0.058844 0.77148,0.22656 0.23858,0.1689 0.39586,0.38041 0.47266,0.63672 l 1.1348,3.9043 21.861,-1.1465 c 0.38977,-0.02009 0.71477,0.11495 0.97461,0.4043 0.25864,0.28464 0.36143,0.627 0.29883,1.0215 l -1.832,11.719 c -0.06497,0.34604 -0.26767,0.70339 -0.60547,1.0684 -0.33779,0.36966 -0.77823,0.56916 -1.3145,0.59766 l -15.443,0.80859 1.4277,4.8184 13.053,-0.68359 c 0.34133,-0.01889 0.63514,0.08382 0.88672,0.30469 0.24566,0.22678 0.37758,0.51022 0.39648,0.85156 0.01772,0.34133 -0.08383,0.63517 -0.30469,0.88672 -0.22678,0.24688 -0.51023,0.37898 -0.85156,0.39648 l -1.2207,0.06445 0.06445,1.2188 c 0.01771,0.34252 -0.08377,0.63717 -0.31055,0.88281 -0.22204,0.25159 -0.50319,0.38484 -0.8457,0.40234 -0.34134,0.01769 -0.63597,-0.08377 -0.88281,-0.31055 -0.25158,-0.22205 -0.38269,-0.50437 -0.40039,-0.8457 l -0.06445,-1.2188 -7.3184,0.38086 0.0625,1.2207 c 0.01772,0.34251 -0.08264,0.63711 -0.30469,0.88281 -0.22677,0.25153 -0.51023,0.38444 -0.85156,0.40234 -0.34134,0.01892 -0.63515,-0.08378 -0.88672,-0.31055 -0.24685,-0.22204 -0.37878,-0.50437 -0.39648,-0.8457 l -0.06445,-1.2207 -0.75586,0.03906 c -0.29291,0.01535 -0.56056,-0.05235 -0.80859,-0.20117 -0.24213,-0.14882 -0.41519,-0.29697 -0.52148,-0.4375 l -0.13477,-0.23828 -6.1328,-23.189 -1.3184,0.06836 C 8.06565,10.18448 7.77605,10.08182 7.51976,9.85622 7.26346,9.6342 7.1273,9.3538 7.1096,9.01247 7.09188,8.66995 7.19724,8.37651 7.42991,8.12966 7.66141,7.87807 7.93869,7.74516 8.26585,7.72732 Z"
           fill="#ffffff"
           style="fill:#129ed9;fill-opacity:1;stroke-width:8.93424;paint-order:stroke fill markers"
           id="path334" />
      </g>
    </g>
    <circle
       style="opacity:0.15;fill:#ffffff;fill-opacity:1;stroke-width:5;stroke-linejoin:round;paint-order:stroke fill markers"
       id="path8376-6-2-1"
       cx="453.42072"
       cy="406.30933"
       inkscape:transform-center-x="18.557303"
       inkscape:transform-center-y="20.111207"
       r="25" />
  </g>
</svg>
