<svg version="1.1" viewBox="0 0 610.22 160.82" xmlns="http://www.w3.org/2000/svg">
 <g transform="translate(-110,-211)">
  <g transform="matrix(3.1175 0 0 -3.1175 -66.738 2195.6)" image-rendering="optimizeQuality" shape-rendering="auto">
   <path d="m99.728 617.49v-7.9943h-4.4232v22.031h8.7843c2.5321 0 4.5266-0.6457 5.9785-1.9366 1.4522-1.2912 2.1807-2.99 2.1807-5.097s-0.7285-3.801-2.1807-5.0817c-1.4519-1.2806-3.4464-1.921-5.9785-1.921zm0 3.4084h4.3611c1.2299 0 2.1651 0.3356 2.8009 1.0017 0.6355 0.6713 0.9507 1.5234 0.9507 2.5614 0 1.0588-0.3152 1.9316-0.9456 2.6235-0.6305 0.6868-1.5659 1.0329-2.806 1.0329h-4.3611z" />
   <path d="m119.45 623.79c0.5167 0.7489 1.1469 1.3272 1.8913 1.7456 0.7489 0.4181 1.5757 0.6298 2.4854 0.6298 1.7053 0 3.0435-0.568 4.0201-1.7042 0.9714-1.131 1.4573-2.8868 1.4573-5.252v-9.7138h-4.4184v9.7603c0 1.2756-0.2271 2.1742-0.6766 2.7062-0.4445 0.5318-1.116 0.7951-2.005 0.7951-0.6049 0-1.1369-0.1082-1.6021-0.3251-0.4649-0.2171-0.8473-0.5218-1.152-0.9193v-12.017h-4.4184v23.611h4.4184z" />
   <path d="m131.96 617.83c0 2.4375 0.682 4.4363 2.0461 5.9959 1.3592 1.5542 3.2502 2.334 5.6633 2.334 2.4182 0 4.3149-0.7744 5.6894-2.3289 1.3745-1.5494 2.0619-3.553 2.0619-6.001v-0.32c0-2.4582-0.6874-4.462-2.0514-6.0111-1.3694-1.5441-3.2607-2.3188-5.6741-2.3188-2.4182 0-4.3146 0.7747-5.684 2.3188-1.3641 1.5491-2.0512 3.5529-2.0512 6.0111zm4.4076-0.3098c0-1.4873 0.2636-2.6802 0.7855-3.5838 0.527-0.8986 1.3745-1.3479 2.5421-1.3479 1.1424 0 1.9794 0.4544 2.5064 1.3581 0.5323 0.9037 0.7957 2.0968 0.7957 3.5736v0.3152c0 1.446-0.2687 2.6286-0.8008 3.5425-0.5375 0.9141-1.3796 1.3736-2.5271 1.3736-1.1418 0-1.9789-0.4595-2.5061-1.3787-0.5321-0.9193-0.7957-2.1019-0.7957-3.5374z" />
   <path d="m157.01 612.59c0.7903 0 1.421 0.227 1.8913 0.6817 0.4753 0.4544 0.7129 1.0639 0.7129 1.8281h4.015l0.0414-0.093c0.0413-1.6526-0.5786-3.0365-1.8706-4.1519-1.2867-1.1157-2.8834-1.6733-4.79-1.6733-2.4392 0-4.3254 0.7693-5.648 2.3137-1.3176 1.544-1.9792 3.5217-1.9792 5.9439v0.4493c0 2.4117 0.6562 4.3946 1.9741 5.944 1.3175 1.5545 3.1983 2.3289 5.6375 2.3289 2.0203 0 3.6482-0.5731 4.883-1.7249 1.235-1.1514 1.8345-2.6645 1.7932-4.5391l-0.0309-0.0879h-4.0255c0 0.8417-0.2325 1.5441-0.6976 2.107-0.4598 0.5576-1.1007 0.8365-1.9222 0.8365-1.1679 0-1.9947-0.4543-2.4752-1.358-0.4757-0.9037-0.7183-2.071-0.7183-3.4963v-0.4544c0-1.4564 0.2426-2.6285 0.7183-3.522 0.4805-0.8881 1.3124-1.3323 2.4908-1.3323" />
   <path d="m175.8 609.49c-0.1653 0.3719-0.3047 0.7643-0.4187 1.1827-0.1187 0.413-0.2015 0.8365-0.248 1.2704-0.4547-0.8005-1.0539-1.4564-1.798-1.978-0.7393-0.5215-1.628-0.7849-2.6564-0.7849-1.7152 0-3.0381 0.4388-3.9631 1.3221-0.93 0.883-1.3952 2.0863-1.3952 3.6045 0 1.6061 0.6199 2.8454 1.855 3.7287 1.2351 0.883 3.0385 1.3218 5.4102 1.3218h2.4701v1.3014c0 0.7852-0.2069 1.3944-0.6202 1.8283-0.4133 0.4337-1.023 0.6506-1.8343 0.6506-0.7132 0-1.266-0.1755-1.6535-0.5216-0.3928-0.3461-0.5839-0.8263-0.5839-1.4459l-4.2684 0.0156-0.0156 0.0929c-0.0723 1.3788 0.527 2.5716 1.7983 3.5788 1.2713 1.0017 2.9455 1.5026 5.0125 1.5026 1.9582 0 3.5447-0.4958 4.7693-1.4924 1.2197-0.9916 1.8292-2.4063 1.8292-4.2398v-6.7601c0-0.7693 0.0621-1.4924 0.176-2.1636 0.1188-0.6764 0.2994-1.3479 0.5528-2.0141zm-4.0459 2.9435c0.7801 0 1.4675 0.1911 2.077 0.5735 0.6046 0.3821 1.0128 0.826 1.2248 1.3323v2.3082h-2.4701c-0.9354 0-1.6483-0.2321-2.1339-0.7021-0.4808-0.47-0.7237-1.033-0.7237-1.6991 0-0.5423 0.1811-0.9814 0.5425-1.3116 0.3671-0.3359 0.8578-0.5012 1.4834-0.5012" />
   <path d="m199.84 617.01 0.0311-0.0876c0.0412-2.3703-0.682-4.2502-2.1702-5.6446-1.4884-1.3943-3.5552-2.0914-6.201-2.0914-2.6561 0-4.8107 0.8521-6.4644 2.5563-1.6535 1.7042-2.4855 3.8937-2.4855 6.5792v4.3688c0 2.6699 0.8116 4.8597 2.4237 6.5741 1.6174 1.7147 3.7153 2.5718 6.2991 2.5718 2.7233 0 4.8518-0.6973 6.3865-2.0967 1.5349-1.3995 2.2841-3.305 2.2427-5.7167l-0.0309-0.0878h-4.2993c0 1.451-0.3461 2.5613-1.0437 3.3361-0.6976 0.7693-1.7827 1.1568-3.2553 1.1568-1.3229 0-2.372-0.5372-3.147-1.6061-0.7804-1.0741-1.1682-2.4376-1.1682-4.1004v-4.3897c0-1.6835 0.4085-3.0572 1.2249-4.1312 0.8218-1.0689 1.9222-1.6061 3.3174-1.6061 1.3796 0 2.4029 0.3719 3.0645 1.1103 0.6613 0.7435 0.9919 1.8437 0.9919 3.3049z" />
   <path d="m212.27 609.49c-0.1653 0.3719-0.305 0.7643-0.4187 1.1827-0.1187 0.413-0.2015 0.8365-0.248 1.2704-0.4547-0.8005-1.0542-1.4564-1.798-1.978-0.7393-0.5215-1.628-0.7849-2.6564-0.7849-1.7155 0-3.0384 0.4388-3.9634 1.3221-0.93 0.883-1.3952 2.0863-1.3952 3.6045 0 1.6061 0.6202 2.8454 1.855 3.7287 1.2354 0.883 3.0388 1.3218 5.4105 1.3218h2.4698v1.3014c0 0.7852-0.2066 1.3944-0.6199 1.8283-0.4133 0.4337-1.023 0.6506-1.8343 0.6506-0.7132 0-1.2662-0.1755-1.6537-0.5216-0.3926-0.3461-0.584-0.8263-0.584-1.4459l-4.2681 0.0156-0.0156 0.0929c-0.0723 1.3788 0.527 2.5716 1.7983 3.5788 1.2713 1.0017 2.9452 1.5026 5.0125 1.5026 1.9582 0 3.5445-0.4958 4.7693-1.4924 1.2198-0.9916 1.8292-2.4063 1.8292-4.2398v-6.7601c0-0.7693 0.0621-1.4924 0.1757-2.1636 0.1191-0.6764 0.2997-1.3479 0.5531-2.0141zm-4.0462 2.9435c0.7804 0 1.4675 0.1911 2.0773 0.5735 0.6046 0.3821 1.0128 0.826 1.2245 1.3323v2.3082h-2.4698c-0.9354 0-1.6486-0.2321-2.1342-0.7021-0.4808-0.47-0.7234-1.033-0.7234-1.6991 0-0.5423 0.1808-0.9814 0.5425-1.3116 0.3671-0.3359 0.8578-0.5012 1.4831-0.5012" />
   <path d="m227.92 622.06-1.6175 0.0465c-0.6562 0-1.1987-0.1344-1.6225-0.4079-0.4235-0.2738-0.7441-0.6559-0.9661-1.1517v-11.052h-4.4078v16.36h4.1028l0.1962-2.4219c0.3824 0.8572 0.8835 1.5284 1.4936 2.0089 0.6097 0.4802 1.3124 0.7228 2.1081 0.7228 0.2225 0 0.4289-0.0153 0.6151-0.0516 0.186-0.036 0.377-0.0774 0.5684-0.1289z" />
   <path d="m235.83 629.86v-4.0073h2.7544v-3.0986h-2.7544v-8.3298c0-0.635 0.1293-1.0897 0.3929-1.3632 0.2633-0.2739 0.6148-0.4079 1.0593-0.4079 0.2324 0 0.434 0.0102 0.5992 0.036 0.1656 0.0258 0.3617 0.0723 0.5786 0.1289l0.3827-3.181c-0.4445-0.1548-0.8785-0.2684-1.302-0.3407-0.4238-0.0777-0.8838-0.1137-1.3799-0.1137-1.5245 0-2.6972 0.4184-3.5189 1.2549-0.8218 0.8365-1.2351 2.1586-1.2351 3.9765v8.34h-2.3924v3.0986h2.3924v4.0073z" />
  </g>
  <g transform="matrix(2.3382 0 0 2.3382 110 207.79)" image-rendering="optimizeQuality" shape-rendering="auto" stroke-width=".57632" aria-label="Joomla eCommerce App">
   <path d="m1.7044 69q-0.55327 0-0.96823-0.09221-0.41495-0.06916-0.7377-0.20748v-1.752q0.36885 0.09221 0.7838 0.16137t0.87601 0.06916q0.57632 0 1.0835-0.23053 0.53022-0.23053 0.85296-0.80686t0.32274-1.6137v-16.368h2.0748v16.206q0 2.3745-1.1757 3.5041t-3.1122 1.1296z" />
   <path d="m20.792 58.419q0 3.066-1.5676 4.7489-1.5446 1.6829-4.1956 1.6829-1.6368 0-2.9277-0.7377-1.2679-0.76075-2.0056-2.19-0.7377-1.4523-0.7377-3.5041 0-3.066 1.5446-4.7259 1.5446-1.6598 4.1956-1.6598 1.6829 0 2.9508 0.76075 1.291 0.7377 2.0056 2.167 0.7377 1.4062 0.7377 3.458zm-9.3365 0q0 2.19 0.85296 3.481 0.87601 1.2679 2.7664 1.2679 1.8673 0 2.7433-1.2679 0.87601-1.291 0.87601-3.481t-0.87601-3.4349-2.7664-1.2449-2.7433 1.2449-0.85296 3.4349z" />
   <path d="m34.739 58.419q0 3.066-1.5676 4.7489-1.5446 1.6829-4.1956 1.6829-1.6368 0-2.9277-0.7377-1.2679-0.76075-2.0056-2.19-0.7377-1.4523-0.7377-3.5041 0-3.066 1.5446-4.7259t4.1956-1.6598q1.6829 0 2.9508 0.76075 1.291 0.7377 2.0056 2.167 0.7377 1.4062 0.7377 3.458zm-9.3365 0q0 2.19 0.85296 3.481 0.87601 1.2679 2.7664 1.2679 1.8673 0 2.7433-1.2679 0.87601-1.291 0.87601-3.481t-0.87601-3.4349-2.7664-1.2449-2.7433 1.2449-0.85296 3.4349z" />
   <path d="m51.499 52.033q2.0978 0 3.1352 1.0835 1.0374 1.0604 1.0374 3.458v8.0455h-2.0056v-7.9533q0-2.9277-2.5128-2.9277-1.7981 0-2.5819 1.0374-0.76075 1.0374-0.76075 3.0199v6.8237h-2.0056v-7.9533q0-2.9277-2.5358-2.9277-1.8673 0-2.5819 1.1526t-0.71464 3.3196v6.4087h-2.0287v-12.356h1.6368l0.29969 1.6829h0.11526q0.57632-0.96823 1.5446-1.4293 0.99128-0.48411 2.0978-0.48411 2.9047 0 3.7807 2.0748h0.11526q0.62243-1.0604 1.6829-1.5676 1.0835-0.50717 2.2822-0.50717z" />
   <path d="m61.527 64.62h-2.0287v-17.52h2.0287z" />
   <path d="m70.126 52.056q2.2592 0 3.3427 0.99128t1.0835 3.1583v8.4143h-1.4754l-0.3919-1.752h-0.09221q-0.80686 1.0143-1.7059 1.4984-0.87601 0.48411-2.4436 0.48411-1.6829 0-2.7894-0.87601-1.1065-0.89907-1.1065-2.7894 0-1.8442 1.4523-2.8355 1.4523-1.0143 4.4723-1.1065l2.0978-0.06916v-0.7377q0-1.5446-0.66854-2.1439t-1.8903-0.59938q-0.96823 0-1.8442 0.29969-0.87601 0.27664-1.6368 0.64548l-0.62243-1.5215q0.80686-0.43801 1.9134-0.7377 1.1065-0.32274 2.3053-0.32274zm0.59938 6.5932q-2.3053 0.09221-3.2044 0.7377-0.87601 0.64548-0.87601 1.8212 0 1.0374 0.62243 1.5215 0.64548 0.48411 1.6368 0.48411 1.5676 0 2.605-0.85296 1.0374-0.87601 1.0374-2.6741v-1.1065z" />
   <path d="m89.144 52.033q1.5907 0 2.7203 0.69159 1.1526 0.69159 1.752 1.9595 0.62243 1.2449 0.62243 2.9277v1.2218h-8.4605q0.04611 2.0978 1.0604 3.2044 1.0374 1.0835 2.8816 1.0835 1.1757 0 2.0748-0.20748 0.92212-0.23053 1.8903-0.64548v1.7751q-0.94517 0.41495-1.8673 0.59938-0.92212 0.20748-2.19 0.20748-1.752 0-3.1122-0.71464-1.3371-0.71464-2.0978-2.1209-0.7377-1.4293-0.7377-3.481 0-2.0287 0.66854-3.481 0.69159-1.4523 1.9134-2.2361 1.2449-0.7838 2.8816-0.7838zm-0.02305 1.6598q-1.4523 0-2.3053 0.94517-0.82991 0.92212-0.99128 2.5819h6.2935q-0.02305-1.5676-0.7377-2.5358-0.71464-0.99128-2.2592-0.99128z" />
   <path d="m104.71 49.751q-2.6511 0-4.1726 1.7751t-1.5215 4.8642q0 3.066 1.4062 4.8642 1.4293 1.7751 4.2648 1.7751 1.0835 0 2.0517-0.18442 0.96822-0.18442 1.8903-0.46106v1.7981q-0.92212 0.3458-1.9134 0.50717-0.96822 0.16137-2.3284 0.16137-2.5128 0-4.1956-1.0374-1.6829-1.0374-2.5358-2.9508-0.82991-1.9134-0.82991-4.4953 0-2.4897 0.89907-4.3801 0.92212-1.9134 2.6972-2.9738 1.7751-1.0835 4.3109-1.0835 2.605 0 4.5414 0.96823l-0.82991 1.752q-0.76075-0.3458-1.7059-0.62243-0.92212-0.27664-2.0287-0.27664z" />
   <path d="m122.69 58.419q0 3.066-1.5676 4.7489-1.5446 1.6829-4.1956 1.6829-1.6368 0-2.9277-0.7377-1.2679-0.76075-2.0056-2.19-0.73769-1.4523-0.73769-3.5041 0-3.066 1.5446-4.7259t4.1956-1.6598q1.6829 0 2.9508 0.76075 1.291 0.7377 2.0056 2.167 0.73769 1.4062 0.73769 3.458zm-9.3365 0q0 2.19 0.85296 3.481 0.87601 1.2679 2.7664 1.2679 1.8673 0 2.7433-1.2679 0.87601-1.291 0.87601-3.481t-0.87601-3.4349q-0.87602-1.2449-2.7664-1.2449-1.8904 0-2.7433 1.2449t-0.85296 3.4349z" />
   <path d="m139.45 52.033q2.0978 0 3.1352 1.0835 1.0374 1.0604 1.0374 3.458v8.0455h-2.0056v-7.9533q0-2.9277-2.5128-2.9277-1.7981 0-2.5819 1.0374-0.76075 1.0374-0.76075 3.0199v6.8237h-2.0056v-7.9533q0-2.9277-2.5358-2.9277-1.8673 0-2.5819 1.1526-0.71465 1.1526-0.71465 3.3196v6.4087h-2.0287v-12.356h1.6368l0.29969 1.6829h0.11527q0.57632-0.96823 1.5446-1.4293 0.99128-0.48411 2.0978-0.48411 2.9047 0 3.7807 2.0748h0.11527q0.62243-1.0604 1.6829-1.5676 1.0835-0.50717 2.2822-0.50717z" />
   <path d="m161 52.033q2.0978 0 3.1352 1.0835 1.0374 1.0604 1.0374 3.458v8.0455h-2.0056v-7.9533q0-2.9277-2.5128-2.9277-1.7981 0-2.5819 1.0374-0.76075 1.0374-0.76075 3.0199v6.8237h-2.0056v-7.9533q0-2.9277-2.5358-2.9277-1.8673 0-2.5819 1.1526-0.71465 1.1526-0.71465 3.3196v6.4087h-2.0287v-12.356h1.6368l0.29969 1.6829h0.11527q0.57632-0.96823 1.5446-1.4293 0.99128-0.48411 2.0978-0.48411 2.9047 0 3.7807 2.0748h0.11527q0.62243-1.0604 1.6829-1.5676 1.0835-0.50717 2.2822-0.50717z" />
   <path d="m173.77 52.033q1.5907 0 2.7203 0.69159 1.1526 0.69159 1.752 1.9595 0.62243 1.2449 0.62243 2.9277v1.2218h-8.4604q0.0461 2.0978 1.0604 3.2044 1.0374 1.0835 2.8816 1.0835 1.1757 0 2.0748-0.20748 0.92212-0.23053 1.8903-0.64548v1.7751q-0.94517 0.41495-1.8673 0.59938-0.92212 0.20748-2.19 0.20748-1.752 0-3.1122-0.71464-1.3371-0.71464-2.0978-2.1209-0.7377-1.4293-0.7377-3.481 0-2.0287 0.66854-3.481 0.69159-1.4523 1.9134-2.2361 1.2449-0.7838 2.8816-0.7838zm-0.023 1.6598q-1.4523 0-2.3053 0.94517-0.82991 0.92212-0.99128 2.5819h6.2935q-0.023-1.5676-0.7377-2.5358-0.71464-0.99128-2.2592-0.99128z" />
   <path d="m187.76 52.033q0.3458 0 0.7377 0.04611 0.41495 0.02305 0.71464 0.09221l-0.25358 1.8673q-0.29969-0.06916-0.66854-0.11526-0.34579-0.04611-0.66854-0.04611-0.94517 0-1.7751 0.53022-0.8299 0.50717-1.3371 1.4523-0.48411 0.92212-0.48411 2.167v6.5932h-2.0287v-12.356h1.6598l0.23053 2.2592h0.0922q0.59938-1.0143 1.5446-1.752t2.2361-0.7377z" />
   <path d="m196.02 64.851q-1.6368 0-2.9277-0.66854-1.2679-0.66854-2.0056-2.0748-0.71464-1.4062-0.71464-3.5963 0-2.2822 0.76075-3.7115 0.76074-1.4293 2.0517-2.0978 1.314-0.66854 2.9738-0.66854 0.94517 0 1.8212 0.20748 0.87601 0.18442 1.4293 0.46106l-0.62243 1.6829q-0.55327-0.20748-1.291-0.3919-0.73769-0.18442-1.3832-0.18442-3.6424 0-3.6424 4.6798 0 2.2361 0.87601 3.4349 0.89907 1.1757 2.6511 1.1757 1.0143 0 1.7751-0.20748 0.7838-0.20748 1.4293-0.50717v1.7981q-0.62244 0.32274-1.3832 0.48411-0.7377 0.18442-1.7981 0.18442z" />
   <path d="m206.9 52.033q1.5906 0 2.7202 0.69159 1.1526 0.69159 1.752 1.9595 0.62243 1.2449 0.62243 2.9277v1.2218h-8.4604q0.0461 2.0978 1.0604 3.2044 1.0374 1.0835 2.8816 1.0835 1.1757 0 2.0748-0.20748 0.92212-0.23053 1.8904-0.64548v1.7751q-0.94518 0.41495-1.8673 0.59938-0.92212 0.20748-2.19 0.20748-1.752 0-3.1122-0.71464-1.3371-0.71464-2.0978-2.1209-0.73769-1.4293-0.73769-3.481 0-2.0287 0.66853-3.481 0.69159-1.4523 1.9134-2.2361 1.2449-0.7838 2.8816-0.7838zm-0.0231 1.6598q-1.4523 0-2.3053 0.94517-0.8299 0.92212-0.99127 2.5819h6.2935q-0.023-1.5676-0.73769-2.5358-0.71464-0.99128-2.2592-0.99128z" />
   <path d="m231.73 64.62-1.9826-5.0947h-6.524l-1.9595 5.0947h-2.0978l6.4318-16.529h1.8673l6.4087 16.529zm-4.4492-11.918q-0.0692-0.18442-0.23053-0.66854-0.16137-0.48411-0.32274-0.99128-0.13832-0.53022-0.23053-0.80686-0.16137 0.71464-0.36885 1.4062-0.20747 0.66854-0.34579 1.0604l-1.8673 4.9794h5.21z" />
   <path d="m241.73 52.033q2.2822 0 3.6654 1.5907 1.4062 1.5907 1.4062 4.795 0 3.1583-1.4062 4.795-1.3832 1.6368-3.6885 1.6368-1.4293 0-2.3745-0.53022-0.92212-0.55327-1.4523-1.2679h-0.13832q0.0461 0.3919 0.0922 0.99128t0.0461 1.0374v5.0717h-2.0286v-17.889h1.6598l0.27664 1.6829h0.0922q0.55327-0.80686 1.4523-1.3601t2.3975-0.55327zm-0.36885 1.7059q-1.8903 0-2.6741 1.0604-0.76075 1.0604-0.80686 3.2274v0.3919q0 2.2822 0.7377 3.5271 0.76075 1.2218 2.7894 1.2218 1.1296 0 1.8442-0.62243 0.7377-0.62243 1.0835-1.6829 0.36885-1.0835 0.36885-2.4667 0-2.1209-0.82991-3.3888-0.80685-1.2679-2.5128-1.2679z" />
   <path d="m255.91 52.033q2.2822 0 3.6654 1.5907 1.4062 1.5907 1.4062 4.795 0 3.1583-1.4062 4.795-1.3832 1.6368-3.6885 1.6368-1.4293 0-2.3745-0.53022-0.92212-0.55327-1.4523-1.2679h-0.13832q0.0461 0.3919 0.0922 0.99128t0.0461 1.0374v5.0717h-2.0287v-17.889h1.6598l0.27664 1.6829h0.0922q0.55327-0.80686 1.4523-1.3601 0.89906-0.55327 2.3975-0.55327zm-0.36885 1.7059q-1.8903 0-2.6742 1.0604-0.76075 1.0604-0.80685 3.2274v0.3919q0 2.2822 0.73769 3.5271 0.76075 1.2218 2.7894 1.2218 1.1296 0 1.8442-0.62243 0.73769-0.62243 1.0835-1.6829 0.36885-1.0835 0.36885-2.4667 0-2.1209-0.82991-3.3888-0.80686-1.2679-2.5128-1.2679z" />
  </g>
  <g stroke-linejoin="round">
   <path d="m115.85 211c-1.4527 4e-5 -2.6367 1.184-2.6367 2.6367v91.438c4e-5 1.4527 1.184 2.6367 2.6367 2.6367h91.438c1.4527-3e-5 2.6367-1.184 2.6367-2.6367v-91.438c-4e-5 -1.4527-1.184-2.6367-2.6367-2.6367zm0 0.59766h91.438c1.1299 2e-5 2.039 0.90919 2.0391 2.0391v91.438c-3e-5 1.1299-0.90919 2.039-2.0391 2.0391h-91.438c-1.1299-3e-5 -2.039-0.90919-2.0391-2.0391v-91.438c3e-5 -1.1299 0.90919-2.039 2.0391-2.0391zm18.389 13.68a0.29871 0.29871 0 0 0-0.28125 0.29688v-0.28125l-5.0801 0.26367c-0.83628 0.0456-1.5702 0.40012-2.1562 1.0371-0.59171 0.62947-0.87515 1.4115-0.83007 2.2812 0.045 0.86931 0.41062 1.6192 1.0644 2.1856 0.64882 0.57028 1.4163 0.8421 2.252 0.79687l2.8398-0.14648 14.275 53.988a0.29871 0.29871 0 0 0 0.0293 0.0703l0.31446 0.55664a0.29871 0.29871 0 0 0 0.0215 0.0332c0.28231 0.37327 0.71594 0.73505 1.3027 1.0957a0.29871 0.29871 0 0 0 2e-3 2e-3c0.62657 0.37598 1.3197 0.55251 2.0605 0.51367l1.4688-0.0742 0.13477 2.5547c0.0449 0.86641 0.39434 1.614 1.0254 2.1816 0.64102 0.57781 1.4239 0.84892 2.291 0.80078 0.86639-0.0453 1.6155-0.39617 2.1934-1.0371 0.56829-0.62882 0.83591-1.4089 0.79101-2.2773l-0.13281-2.5566 16.518-0.86133 0.13281 2.5527c0.0448 0.86462 0.39477 1.6125 1.0352 2.1797 6.8e-4 6.4e-4 1e-3 1e-3 2e-3 2e-3 7.1e-4 6.3e-4 1e-3 1e-3 2e-3 2e-3 0.63085 0.57758 1.4135 0.84549 2.2774 0.80078 0.86731-0.0444 1.6146-0.39482 2.1816-1.0352l2e-3 -2e-3c0.57942-0.6287 0.84768-1.4119 0.80273-2.2793l-0.13281-2.5547 2.5527-0.13282c0.86653-0.0445 1.6156-0.39445 2.1934-1.0234a0.29871 0.29871 0 0 0 4e-3 -6e-3c0.5623-0.64046 0.83413-1.4204 0.78906-2.2871-0.0479-0.86607-0.39769-1.6138-1.0234-2.1914a0.29871 0.29871 0 0 0-6e-3 -6e-3c-0.6398-0.56172-1.4187-0.83266-2.2852-0.78515h-2e-3l-30.283 1.5859-3.1641-10.678 35.734-1.8711c1.3181-0.07 2.4347-0.57539 3.2754-1.4941 0.8155-0.88114 1.3226-1.7638 1.4883-2.6465a0.29871 0.29871 0 0 0 2e-3 -8e-3l4.2832-27.398v-2e-3c0.15747-0.99632-0.11063-1.9087-0.76757-2.6328l-2e-3 -2e-3c-0.65956-0.73332-1.53-1.0938-2.5176-1.043l-50.881 2.668-2.584-8.9004a0.29871 0.29871 0 0 0-2e-3 -2e-3c-0.1989-0.66394-0.61747-1.2214-1.2207-1.6484-0.60493-0.42525-1.2771-0.62549-1.9902-0.58594zm0.0332 0.59571a0.29871 0.29871 0 0 0 2e-3 0c0.58403-0.032 1.1012 0.11987 1.6113 0.47851 0.51244 0.36276 0.83202 0.79739 0.99218 1.332l2.6504 9.123a0.29871 0.29871 0 0 0 0.30274 0.21484l51.115-2.6777c0.83414-0.0429 1.4896 0.22733 2.0449 0.8457a0.29871 0.29871 0 0 0 2e-3 2e-3c0.55067 0.60601 0.75539 1.2939 0.62109 2.1406l-4.2812 27.391-2e-3 2e-3c-0.1385 0.73466-0.57453 1.5228-1.3379 2.3477a0.29871 0.29871 0 0 0-2e-3 2e-3c-0.73896 0.80856-1.6788 1.2396-2.8672 1.3027l-36.111 1.8887a0.29871 0.29871 0 0 0-0.27149 0.38282l3.3379 11.27a0.29871 0.29871 0 0 0 0.30079 0.21289l30.521-1.5996c0.72728-0.0403 1.3203 0.1682 1.8555 0.63672 0.52168 0.48242 0.79169 1.054 0.83203 1.7832 0.0374 0.7279-0.17148 1.3224-0.64062 1.8574-0.482 0.52316-1.0512 0.7907-1.7793 0.82813a0.29871 0.29871 0 0 0 0 2e-3l-2.8535 0.14844a0.29871 0.29871 0 0 0-0.2832 0.31445l0.14844 2.8516c0.038 0.73334-0.16676 1.3261-0.64649 1.8457a0.29871 0.29871 0 0 0-4e-3 4e-3c-0.4708 0.53347-1.0371 0.80231-1.7695 0.83985-0.73042 0.0378-1.3229-0.16818-1.8457-0.64844a0.29871 0.29871 0 0 0-4e-3 -4e-3c-0.53337-0.47077-0.80205-1.038-0.83985-1.7676l-0.14648-2.8516a0.29871 0.29871 0 0 0-0.31446-0.2832l-17.115 0.89453a0.29871 0.29871 0 0 0-0.28125 0.3125l0.14844 2.8555c0.0374 0.73229-0.16903 1.326-0.63867 1.8457-0.4826 0.53528-1.0514 0.80361-1.7812 0.8418a0.29871 0.29871 0 0 0-2e-3 0c-0.72904 0.0405-1.322-0.16773-1.8574-0.65039-0.52329-0.47072-0.79229-1.0378-0.83008-1.7676l-0.14843-2.8535a0.29871 0.29871 0 0 0-0.31446-0.28321l-1.7676 0.0918c-0.62823 0.0329-1.186-0.1104-1.7188-0.42969h-2e-3c-0.54201-0.33332-0.91582-0.65871-1.1309-0.9414l-0.2793-0.4961-14.328-54.184a0.29871 0.29871 0 0 0-0.30469-0.22266l-3.082 0.16016a0.29871 0.29871 0 0 0-2e-3 0c-0.69338 0.0375-1.2769-0.16887-1.8262-0.65235a0.29871 0.29871 0 0 0-2e-3 0c-0.54471-0.47182-0.82172-1.0388-0.85937-1.7656-0.0378-0.73045 0.17572-1.3194 0.66992-1.8438a0.29871 0.29871 0 0 0 4e-3 -2e-3c0.49596-0.53905 1.0552-0.80751 1.748-0.84571l5.3633-0.27734a0.29871 0.29871 0 0 0 0-2e-3z" fill="#fff" style="paint-order:stroke fill markers"/>
   <path d="m115.85 211.3a2.3382 2.3382 0 0 0-2.3381 2.3381v91.438a2.3382 2.3382 0 0 0 2.3381 2.3381h91.438a2.3382 2.3382 0 0 0 2.3381-2.3381v-91.438a2.3382 2.3382 0 0 0-2.3381-2.3381zm18.406 14.276c0.64898-0.036 1.2436 0.14104 1.8014 0.53319 0.55784 0.39489 0.92769 0.89061 1.1072 1.4899l2.6508 9.1261 51.116-2.6788c0.91132-0.0469 1.6746 0.26847 2.2821 0.94504 0.60472 0.66549 0.84167 1.4659 0.69537 2.3883l-4.283 27.399c-0.15189 0.809-0.62425 1.6446-1.4141 2.4979-0.78992 0.86432-1.8194 1.3323-3.0731 1.3989l-36.111 1.8901 3.3368 11.268 30.52-1.5996c0.79809-0.0442 1.485 0.19643 2.0733 0.71286 0.57439 0.53023 0.88456 1.19 0.92871 1.9881 0.0415 0.79811-0.19879 1.4862-0.7152 2.0744-0.53022 0.57722-1.19 0.8865-1.9881 0.92753l-2.8526 0.14934 0.14817 2.8526c0.0415 0.80084-0.19547 1.4884-0.7257 2.0628-0.51916 0.58826-1.1767 0.89817-1.9776 0.93921-0.79809 0.0413-1.4856-0.19547-2.0628-0.7257-0.58824-0.51921-0.89787-1.1772-0.93921-1.9752l-0.14817-2.8526-17.115 0.8937 0.14934 2.8538c0.0414 0.80084-0.19601 1.4883-0.7152 2.0628-0.53023 0.58811-1.19 0.89745-1.9881 0.93921-0.79808 0.0443-1.4862-0.19548-2.0744-0.72571-0.57717-0.51918-0.8862-1.1772-0.92753-1.9752l-0.14934-2.8526-1.7676 0.091c-0.68487 0.0359-1.3113-0.12453-1.8912-0.47252-0.56614-0.34796-0.97187-0.69229-1.2204-1.0209l-0.31501-0.55769-14.338-54.222-3.0825 0.15985c-0.76496 0.0414-1.4414-0.19821-2.0406-0.7257-0.59927-0.51909-0.92003-1.1772-0.96137-1.9752-0.0415-0.80087 0.20735-1.4868 0.75137-2.0639 0.54125-0.58826 1.1881-0.89868 1.9531-0.94038l5.3622-0.27884z" style="paint-order:stroke fill markers"/>
  </g>
 </g>
</svg>
